<?xml version="1.0" encoding="UTF-8"?>
<svg width="20px" height="12px" viewBox="0 0 20 12" version="1.1" xmlns="http://www.w3.org/2000/svg" xmlns:xlink="http://www.w3.org/1999/xlink">
    <title>back</title>
    <g id="Page-1" stroke="none" stroke-width="1" fill="none" fill-rule="evenodd">
        <g id="Android-Copy-5" transform="translate(-24.000000, -18.000000)" fill="#9D9D9D" fill-rule="nonzero">
            <g id="back" transform="translate(24.000000, 18.000000)">
                <path d="M18.6770228,5 L3.83,5 L6.71,2.12 C7.1,1.73 7.1,1.1 6.71,0.71 C6.32,0.32 5.69,0.32 5.3,0.71 L0.71,5.3 C0.32,5.69 0.32,6.32 0.71,6.71 L5.3,11.3 C5.69,11.69 6.32,11.69 6.71,11.3 C7.1,10.91 7.1,10.28 6.71,9.89 L3.83,7 L18.6770228,7 C19.2270228,7 19.9508318,6.55 19.9508318,6 C19.9508318,5.45 19.2270228,5 18.6770228,5 Z"></path>
            </g>
        </g>
    </g>
</svg>