<?xml version="1.0" encoding="UTF-8"?>
<svg width="35px" height="52px" viewBox="0 0 35 52" version="1.1" xmlns="http://www.w3.org/2000/svg" xmlns:xlink="http://www.w3.org/1999/xlink">
    <title>noun_birthplace_2218096</title>
    <g id="Page-1" stroke="none" stroke-width="1" fill="none" fill-rule="evenodd">
        <g id="Android-Copy-5" transform="translate(-160.000000, -130.000000)" fill="#BDBDBD" fill-rule="nonzero">
            <g id="noun_birthplace_2218096" transform="translate(160.000000, 130.000000)">
                <path d="M35,17.8716339 C35,8.00162699 27.1488636,0 17.5,0 C7.85113636,0 0,8.00162699 0,17.8716339 C0.0338284286,21.3266259 1.0196069,24.7044812 2.84772727,27.629618 L16.8198864,50.8343363 C16.9640886,51.0734724 17.2219544,51.2195122 17.5,51.2195122 C17.7780456,51.2195122 18.0359114,51.0734724 18.1801136,50.8343363 C21.3619318,45.5572633 31.675,28.3337612 31.7028409,28.3137571 C33.8068182,24.7050233 35,21.00027 35,17.8716339 Z M17.5,29.6060199 C10.6905801,29.6060199 5.17045455,24.0532217 5.17045455,17.203498 C5.17045455,10.3537744 10.6905801,4.80097619 17.5,4.80097619 C24.3094199,4.80097619 29.8295455,10.3537744 29.8295455,17.203498 C29.8295455,20.4928513 28.5305435,23.6474813 26.2183052,25.9734053 C23.9060669,28.2993294 20.7699988,29.6060199 17.5,29.6060199 Z" id="Shape"></path>
                <path d="M21.7530965,10.2481227 C20.1910157,10.2585669 18.9319927,11.5312968 18.9383011,13.0935623 C18.9326596,13.1933892 18.9326596,13.2934551 18.9383011,13.393282 C18.8272967,13.3683221 18.7143278,13.3530887 18.6006774,13.3477549 C18.5425752,13.3438611 18.4842775,13.3438611 18.4261753,13.3477549 C18.3203034,13.3478658 18.2147477,13.3593128 18.1113127,13.3819002 L15.4558454,13.954782 C14.5658195,14.1286038 13.8638793,14.8142219 13.6690953,15.699985 C13.4662094,15.7338374 13.2701801,15.8004687 13.088686,15.8972688 C12.9865014,15.9502369 12.8909903,16.0151912 12.8041717,16.0907587 L10.4408058,18.1584449 C9.97686807,18.4520171 9.63466118,18.9034 9.47725048,19.4294079 C9.30680242,20.0349631 9.38891824,20.6837456 9.70486196,21.2277258 C10.0962993,21.9311389 10.8384249,22.3668744 11.6433531,22.3659016 C12.0407176,22.3582937 12.4306627,22.2568975 12.7814105,22.0699759 C12.9208991,21.9938874 13.0486688,21.8980502 13.160763,21.7854319 L13.464245,22.2217327 C13.6728888,22.5404219 14.6554117,23.902439 16.3283561,23.902439 C17.1746931,23.8859438 17.9851748,23.5576646 18.604471,22.9805166 C18.7875583,22.8310022 18.9496156,22.6574425 19.0862486,22.4645435 L21.6279102,18.8413504 C21.7685581,18.6472027 21.8857095,18.4370724 21.9769144,18.2153537 C22.2605402,17.4876781 22.2899504,16.6854969 22.060372,15.939002 C23.6317014,15.8541413 24.8367296,14.5114015 24.7518778,12.9399086 C24.667026,11.3684157 23.3244259,10.1632621 21.7530965,10.2481227 L21.7530965,10.2481227 Z M20.5543427,17.6955867 C20.513531,17.792932 20.4626753,17.8857531 20.4026017,17.9725428 L17.8495595,21.6298812 C17.7850887,21.7127258 17.711257,21.7878383 17.6295351,21.8537225 C17.2840412,22.1814261 16.8307723,22.371657 16.3549108,22.3886651 C15.3685944,22.3886651 14.7502498,21.3832765 14.7502498,21.3832765 L13.3580263,19.376293 L12.1023696,20.7269284 C11.9626628,20.8040754 11.806652,20.8469829 11.6471466,20.8521277 C11.3863475,20.8511245 11.1478615,20.7047988 11.0288021,20.4727358 C10.9145317,20.2902608 10.8831547,20.0678264 10.9424894,19.8608573 C11.001824,19.6538881 11.146283,19.4818735 11.3398711,19.3876748 L13.8094557,17.2289346 C13.9633398,17.1488107 14.1529428,17.1999264 14.2457111,17.3465461 L15.3572138,18.5681882 C15.3898908,18.6377282 15.4587273,18.6831357 15.5355095,18.6857997 C15.6066813,18.6811732 15.6720678,18.6449982 15.7138051,18.5871578 L16.9504942,16.8002217 L16.0666029,16.9899177 C16.0048564,16.9972069 15.9424668,16.9972069 15.8807202,16.9899177 C15.5144618,16.9860884 15.2032302,16.7211149 15.1409829,16.360127 C15.0574639,15.9235243 15.342217,15.5014358 15.778295,15.4154411 L18.4337623,14.8425592 L18.4337623,14.8425592 L18.4982523,14.8425592 C18.6793304,14.8514485 18.8559017,14.9020881 19.0141716,14.9905221 L19.8601276,15.4989073 C20.6327176,15.9349594 20.9360166,16.8946774 20.5543427,17.6955867 Z" id="Shape"></path>
            </g>
        </g>
    </g>
</svg>