<?xml version="1.0" encoding="UTF-8"?>
<svg width="22px" height="24px" viewBox="0 0 22 24" version="1.1" xmlns="http://www.w3.org/2000/svg" xmlns:xlink="http://www.w3.org/1999/xlink">
    <title>noun_building_1741291</title>
    <g id="Page-1" stroke="none" stroke-width="1" fill="none" fill-rule="evenodd">
        <g id="Android-Copy-5" transform="translate(-80.000000, -301.000000)" fill="#A5B4FB" fill-rule="nonzero">
            <g id="noun_building_1741291" transform="translate(80.000000, 301.000000)">
                <g id="Group">
                    <path d="M20.62525,23.106383 L20.62525,7.53191489 L15.87525,7.53191489 L15.87525,2.68085106 L14.625,2.68085106 L14.625,0.127659574 L7.875,0.127659574 L7.875,2.68085106 L6.625,2.68085106 L6.625,11.3415319 C6.26075,11.1630638 5.8535,11.0622128 5.423,11.0622128 C3.88225,11.0622128 2.62875,12.3426383 2.62875,13.9161702 C2.62875,14.2424681 2.681,14.5588085 2.78475,14.8600851 C1.9445,15.3697021 1.419,16.296 1.419,17.3134468 C1.419,18.8869787 2.6725,20.1674043 4.2135,20.1674043 C4.5275,20.1674043 4.83325,20.1084255 5.125,20.0052766 L5.125,23.106383 L0.125,23.106383 L0.125,23.8723404 L21.875,23.8723404 L21.875,23.106383 L20.62525,23.106383 Z M19.87525,8.29787234 L19.87525,23.106383 L15.87525,23.106383 L15.87525,8.29787234 L19.87525,8.29787234 Z M13.62525,23.1061277 L11.62525,23.1061277 L11.62525,19.2765957 L13.62525,19.2765957 L13.62525,23.1061277 Z M10.875,23.1061277 L8.875,23.1061277 L8.875,19.2765957 L10.875,19.2765957 L10.875,23.1061277 Z M8.625,0.893617021 L13.875,0.893617021 L13.875,2.68085106 L8.625,2.68085106 L8.625,0.893617021 Z M7.375,3.44680851 L15.12525,3.44680851 L15.12525,23.1061277 L14.37525,23.1061277 L14.37525,18.5106383 L8.125,18.5106383 L8.125,23.1061277 L7.375,23.1061277 L7.375,3.44680851 Z M4.2135,19.4014468 C3.086,19.4014468 2.169,18.4646809 2.169,17.3134468 C2.169,16.4742128 2.6575,15.7197447 3.41375,15.3911489 L3.78375,15.2302979 L3.601,14.8644255 C3.45325,14.5695319 3.3785,14.250383 3.3785,13.9159149 C3.3785,12.7646809 4.2955,11.8279149 5.42275,11.8279149 C5.8725,11.8279149 6.28675,11.9790638 6.62475,12.2310638 L6.62475,19.0685106 C6.5285,19.0833191 6.43075,19.0925106 6.33025,19.0925106 C6.1755,19.0925106 6.02375,19.0685106 5.87475,19.0340426 L5.87475,13.9148936 L5.12475,13.9148936 L5.12475,17.4735319 L4.02425,16.386383 L3.50275,16.9368511 L5.12475,18.539234 L5.12475,19.1808511 C4.843,19.3245957 4.53325,19.4014468 4.2135,19.4014468 Z M5.875,19.8158298 C6.02525,19.8413617 6.17675,19.8587234 6.3305,19.8587234 C6.43025,19.8587234 6.528,19.8502979 6.625,19.8390638 L6.625,23.106383 L5.875,23.106383 L5.875,19.8158298 Z" id="Shape"></path>
                    <rect id="Rectangle" x="8.125" y="4.21276596" width="1" height="1.0212766"></rect>
                    <rect id="Rectangle" x="9.875" y="4.21276596" width="1" height="1.0212766"></rect>
                    <rect id="Rectangle" x="13.375" y="4.21276596" width="1" height="1.0212766"></rect>
                    <rect id="Rectangle" x="11.625" y="4.21276596" width="1" height="1.0212766"></rect>
                    <rect id="Rectangle" x="8.125" y="6" width="1" height="1.0212766"></rect>
                    <rect id="Rectangle" x="9.875" y="6" width="1" height="1.0212766"></rect>
                    <rect id="Rectangle" x="13.375" y="6" width="1" height="1.0212766"></rect>
                    <rect id="Rectangle" x="11.625" y="6" width="1" height="1.0212766"></rect>
                    <rect id="Rectangle" x="8.125" y="7.78723404" width="1" height="1.0212766"></rect>
                    <rect id="Rectangle" x="9.875" y="7.78723404" width="1" height="1.0212766"></rect>
                    <rect id="Rectangle" x="13.375" y="7.78723404" width="1" height="1.0212766"></rect>
                    <rect id="Rectangle" x="11.625" y="7.78723404" width="1" height="1.0212766"></rect>
                    <rect id="Rectangle" x="8.125" y="9.57446809" width="1" height="1.0212766"></rect>
                    <rect id="Rectangle" x="9.875" y="9.57446809" width="1" height="1.0212766"></rect>
                    <rect id="Rectangle" x="13.375" y="9.57446809" width="1" height="1.0212766"></rect>
                    <rect id="Rectangle" x="11.625" y="9.57446809" width="1" height="1.0212766"></rect>
                    <rect id="Rectangle" x="8.125" y="11.3617021" width="1" height="1.0212766"></rect>
                    <rect id="Rectangle" x="9.875" y="11.3617021" width="1" height="1.0212766"></rect>
                    <rect id="Rectangle" x="13.375" y="11.3617021" width="1" height="1.0212766"></rect>
                    <rect id="Rectangle" x="11.625" y="11.3617021" width="1" height="1.0212766"></rect>
                    <rect id="Rectangle" x="8.125" y="13.1489362" width="1" height="1.0212766"></rect>
                    <rect id="Rectangle" x="9.875" y="13.1489362" width="1" height="1.0212766"></rect>
                    <rect id="Rectangle" x="13.375" y="13.1489362" width="1" height="1.0212766"></rect>
                    <rect id="Rectangle" x="11.625" y="13.1489362" width="1" height="1.0212766"></rect>
                    <rect id="Rectangle" x="8.125" y="14.9361702" width="1" height="1.0212766"></rect>
                    <rect id="Rectangle" x="9.875" y="14.9361702" width="1" height="1.0212766"></rect>
                    <rect id="Rectangle" x="13.375" y="14.9361702" width="1" height="1.0212766"></rect>
                    <rect id="Rectangle" x="11.625" y="14.9361702" width="1" height="1.0212766"></rect>
                    <rect id="Rectangle" x="8.125" y="16.7234043" width="1" height="1.0212766"></rect>
                    <rect id="Rectangle" x="9.875" y="16.7234043" width="1" height="1.0212766"></rect>
                    <rect id="Rectangle" x="13.375" y="16.7234043" width="1" height="1.0212766"></rect>
                    <rect id="Rectangle" x="11.625" y="16.7234043" width="1" height="1.0212766"></rect>
                    <rect id="Rectangle" x="17.375" y="9.82978723" width="1" height="1.0212766"></rect>
                    <rect id="Rectangle" x="17.375" y="11.6170213" width="1" height="1.0212766"></rect>
                    <rect id="Rectangle" x="17.375" y="13.4042553" width="1" height="1.0212766"></rect>
                    <rect id="Rectangle" x="17.375" y="15.1914894" width="1" height="1.0212766"></rect>
                    <rect id="Rectangle" x="17.375" y="16.9787234" width="1" height="1.0212766"></rect>
                    <rect id="Rectangle" x="17.375" y="18.7659574" width="1" height="1.0212766"></rect>
                    <rect id="Rectangle" x="17.375" y="20.5531915" width="1" height="1.0212766"></rect>
                </g>
            </g>
        </g>
    </g>
</svg>