<?xml version="1.0" encoding="UTF-8"?>
<svg width="89px" height="26px" viewBox="0 0 89 26" version="1.1" xmlns="http://www.w3.org/2000/svg" xmlns:xlink="http://www.w3.org/1999/xlink">
    <title>business</title>
    <g id="Page-1" stroke="none" stroke-width="1" fill="none" fill-rule="evenodd">
        <g id="HAMBURGER-EXTENSION" transform="translate(-19.000000, -203.000000)">
            <g id="business" transform="translate(20.000000, 204.000000)">
                <rect id="Rectangle" stroke="#96A8F9" fill="#FFFFFF" x="0" y="0" width="87" height="24" rx="8"></rect>
                <text id="Business" font-family="Helvetica-Light, Helvetica" font-size="12" font-weight="300" fill="#AEAEAE">
                    <tspan x="32" y="17">Business</tspan>
                </text>
                <g transform="translate(3.000000, 1.000000)">
                    <rect id="Rectangle" stroke="#979797" fill="#D8D8D8" opacity="0" x="2" y="0" width="24" height="24"></rect>
                    <g id="noun_PROFIT-BUSINESS_2352432" transform="translate(0.000000, 1.000000)" fill-rule="nonzero">
                        <g id="Group">
                            <path d="M0.562894737,13.2424242 C0.702105263,13.2424242 0.835263158,13.1906061 0.938157895,13.0927273 L7.64447368,6.70757576 L12.5713158,6.70757576 C12.7044737,6.70757576 12.8255263,6.66151515 12.9284211,6.58090909 L18.5210526,1.79060606 L18.5210526,3.92666667 C18.5210526,4.2030303 18.7571053,4.43333333 19.0536842,4.43333333 C19.3502632,4.43333333 19.5863158,4.20878788 19.5863158,3.92666667 L19.5863158,0.662121212 L19.55,0.483636364 C19.5318421,0.443333333 19.5136842,0.408787879 19.4955263,0.391515152 L19.4410526,0.316666667 C19.4047368,0.282121212 19.3744737,0.264848485 19.3442105,0.247575758 L19.2776316,0.207272727 C19.2413158,0.19 19.2110526,0.184242424 19.1868421,0.184242424 C19.1686842,0.178484848 19.1444737,0.172727273 19.1142105,0.166969697 L15.6339474,0.161212121 C15.3434211,0.161212121 15.1013158,0.385757576 15.1013158,0.667878788 C15.1013158,0.95 15.3373684,1.17454545 15.6339474,1.17454545 L17.6857895,1.17454545 L12.3836842,5.71151515 L7.43868421,5.71151515 C7.29947368,5.71151515 7.16631579,5.76333333 7.06342105,5.86121212 L0.187631579,12.3845455 C-0.0181578947,12.580303 -0.0181578947,12.9027273 0.187631579,13.0984848 C0.290526316,13.1906061 0.423684211,13.2424242 0.562894737,13.2424242 Z" id="Path" fill="#98AAF9"></path>
                            <path d="M1.82789474,13.7030303 C1.53736842,13.7030303 1.29526316,13.9275758 1.29526316,14.209697 L1.29526316,18.3609091 C1.29526316,18.6372727 1.53131579,18.8675758 1.82789474,18.8675758 L4.76947368,18.8675758 C5.06,18.8675758 5.30210526,18.6430303 5.30210526,18.3609091 L5.30210526,14.209697 C5.30210526,13.9333333 5.06605263,13.7030303 4.76947368,13.7030303 L1.82789474,13.7030303 Z" id="Path" fill="#98A9FA"></path>
                            <path d="M9.72052632,18.3378788 L9.72052632,9.28121212 C9.72052632,9.00484848 9.48447368,8.77454545 9.18789474,8.77454545 L6.24631579,8.77454545 C5.95578947,8.77454545 5.71368421,8.99909091 5.71368421,9.28121212 L5.71368421,18.3321212 C5.71368421,18.6084848 5.94973684,18.8387879 6.24631579,18.8387879 L9.18789474,18.8387879 C9.48447368,18.8387879 9.72052632,18.6142424 9.72052632,18.3378788 Z" id="Path" fill="#CAE7FF"></path>
                            <path d="M13.6063158,18.8387879 C13.8968421,18.8387879 14.1389474,18.6142424 14.1389474,18.3321212 L14.1389474,9.28121212 C14.1389474,9.00484848 13.9028947,8.77454545 13.6063158,8.77454545 L10.6647368,8.77454545 C10.3742105,8.77454545 10.1321053,8.99909091 10.1321053,9.28121212 L10.1321053,18.3321212 C10.1321053,18.6084848 10.3681579,18.8387879 10.6647368,18.8387879 L13.6063158,18.8387879 L13.6063158,18.8387879 Z" id="Path" fill="#96A8F9"></path>
                            <path d="M18.5513158,18.3551515 L18.5513158,7.98 C18.5513158,7.70363636 18.3152632,7.47333333 18.0186842,7.47333333 L15.0771053,7.47333333 C14.7865789,7.47333333 14.5444737,7.69787879 14.5444737,7.98 L14.5444737,18.3551515 C14.5444737,18.6315152 14.7805263,18.8618182 15.0771053,18.8618182 L18.0186842,18.8618182 C18.3152632,18.8618182 18.5513158,18.6315152 18.5513158,18.3551515 Z" id="Path" fill="#CAE7FF"></path>
                            <path d="M19.4955263,5.40636364 C19.205,5.40636364 18.9628947,5.63090909 18.9628947,5.9130303 L18.9628947,18.3609091 C18.9628947,18.6372727 19.1989474,18.8675758 19.4955263,18.8675758 L22.4371053,18.8675758 C22.7276316,18.8675758 22.9697368,18.6430303 22.9697368,18.3609091 L22.9697368,5.90727273 C22.9697368,5.63090909 22.7336842,5.40060606 22.4371053,5.40060606 L19.4955263,5.40060606 L19.4955263,5.40636364 Z" id="Path" fill="#97A8F9"></path>
                        </g>
                    </g>
                </g>
            </g>
        </g>
    </g>
</svg>