<?xml version="1.0" encoding="UTF-8"?>
<svg width="35px" height="38px" viewBox="0 0 35 38" version="1.1" xmlns="http://www.w3.org/2000/svg" xmlns:xlink="http://www.w3.org/1999/xlink">
    <title>deliverytime</title>
    <g id="Page-1" stroke="none" stroke-width="1" fill="none" fill-rule="evenodd">
        <g id="birthday-" transform="translate(-136.000000, -247.000000)" fill="#BDBDBD" fill-rule="nonzero">
            <g id="dob" transform="translate(-16.000000, 81.000000)">
                <g id="deliverytime" transform="translate(152.000000, 166.000000)">
                    <path d="M26.5868557,5.01426047 C26.1894959,5.70758326 25.8526606,6.47720825 25.5254375,6.85904529 L25.4935868,6.9098319 C25.4075655,7.0625178 25.2298207,7.13564073 25.0644578,7.0943919 L25.0644578,7.0943919 L25.0453963,7.08803338 L25.0390424,7.08803338 L25.0359469,7.0847726 L25.0261718,7.08167487 L25.0168039,7.07849561 L25.013627,7.07849561 L25.0074361,7.07531635 L25.0008379,7.07205557 L24.9913886,7.06895783 L24.9882931,7.06577858 L24.9820207,7.06259932 L24.972327,7.05933854 L24.9628777,7.05306154 L24.9405578,7.03716525 L24.9374623,7.03716525 L24.9311899,7.03080674 L24.9214962,7.02762748 L24.9183193,7.02135048 L24.9152239,7.02135048 L24.9089515,7.01491045 L24.8995022,7.00863345 L24.8964067,7.00537267 L24.8929039,7.00219342 L24.886713,6.99599794 C24.7628945,6.87200688 24.7308809,6.68108836 24.8200791,6.52204394 L24.8518483,6.46799656 C25.0170483,5.9908633 25.5159067,5.31661605 25.9132665,4.62639099 L25.8498095,4.59133764 L25.8020742,4.56598509 L25.7989787,4.56264279 L25.7861081,4.55644732 L25.5922343,4.45454802 L25.5765941,4.44517329 L25.5288588,4.41965771 L25.4654018,4.38770209 L25.4619805,4.38460435 L25.3985235,4.35273025 L25.3476113,4.32729619 L25.3350665,4.32101919 L25.2682696,4.28906357 L25.2333235,4.27006954 L25.2047312,4.25735251 L25.0108574,4.16197477 L25.004585,4.15879551 L25.004585,4.15879551 L24.9408022,4.13001915 L24.8868759,4.10466661 L24.8742497,4.09822657 L24.8073714,4.06643399 L24.7693298,4.05061922 L24.7407375,4.03790219 L24.6518651,3.99649032 L24.6071438,3.97741477 L24.5403469,3.94554067 L24.53717,3.94554067 L24.473713,3.91700887 C24.2988193,3.84054364 24.1209931,3.76750222 23.942841,3.69755855 L23.9302962,3.69111851 C23.7841577,3.63397339 23.6377749,3.57984448 23.488541,3.5257971 L23.4153903,3.49718378 L23.3994242,3.49066222 L23.3105518,3.45895116 L23.2914088,3.45259264 L23.2216794,3.43033784 L23.1675903,3.41142533 L23.1293043,3.3987083 L23.0435273,3.36985042 L23.0404319,3.36675268 C21.6324032,2.90241798 20.1640945,2.61302398 18.6860921,2.51120621 L18.6767242,2.51120621 L18.5877704,2.50802695 L18.5463074,2.50484769 L18.4860274,2.50166843 L18.4128767,2.49530992 L18.3873798,2.49530992 L18.2889767,2.49221218 L18.2827043,2.48911444 L18.1904106,2.48577214 L18.1518802,2.48577214 L18.0915187,2.48259288 L18.0215449,2.47949514 L17.9897757,2.47949514 L17.8911281,2.47639741 L17.8911281,2.53672179 C17.894305,3.31588455 17.9835033,4.11754668 17.8911281,4.60079389 L17.8911281,4.66446057 C17.8911281,4.84567827 17.7673096,4.99836418 17.5986883,5.04295531 L17.589239,5.04295531 L17.5829666,5.04613457 L17.5798711,5.04613457 L17.570096,5.04931382 L17.5606466,5.04931382 L17.5574697,5.04931382 L17.5511973,5.04931382 L17.5383267,5.05241156 L17.5288774,5.05241156 L17.5288774,5.05241156 L17.5191837,5.05241156 L17.5097344,5.05241156 L17.5002851,5.05241156 L17.49051,5.05241156 L17.4810607,5.05241156 L17.4716113,5.05241156 L17.4716113,5.05241156 L17.4587407,5.05241156 L17.4492914,5.04931382 L17.443182,5.04931382 L17.440005,5.04931382 L17.4303113,5.04931382 L17.420862,5.04613457 L17.4176851,5.04613457 L17.4110869,5.04295531 L17.4016376,5.04295531 C17.2332606,4.99836418 17.1091977,4.84567827 17.1091977,4.66446057 L17.1091977,4.60079389 C17.0171484,4.11746516 17.1060208,3.31580303 17.1091977,2.53672179 L17.1091977,2.47639741 C14.2043495,2.53981953 11.4775719,3.31278681 9.08730371,4.62630947 C9.48466349,5.31653453 9.98384773,5.99078178 10.1490477,6.46791504 L10.180817,6.52196242 C10.2696894,6.68100684 10.2380016,6.8750231 10.1139387,6.99591642 L10.1076663,7.0021119 L10.1044894,7.00529115 L10.1013124,7.00855193 L10.09504,7.01482893 L10.0853464,7.02126896 L10.0821694,7.02126896 L10.0789925,7.02754596 L10.0695432,7.03072522 L10.062945,7.03708373 L10.059768,7.03708373 L10.0376925,7.05298002 L10.0279988,7.05925702 L10.0185495,7.0625178 L10.0122771,7.06569706 L10.0088558,7.06887631 L9.99940651,7.07197405 L9.99313412,7.07523483 L9.98686174,7.07841409 L9.98368481,7.07841409 L9.97399112,7.08159335 L9.96454181,7.08469108 L9.96136489,7.08795186 L9.95476666,7.08795186 L9.9359495,7.09431038 L9.9359495,7.09431038 C9.77384496,7.13555921 9.59259742,7.06561554 9.50682049,6.90975038 L9.47513272,6.85896377 C9.14465125,6.47712673 8.81074847,5.70750174 8.41363307,5.01417895 L8.30244076,5.08412262 L8.18774569,5.15398478 L8.0797303,5.22392845 L8.02254568,5.25906333 L7.96853799,5.29721443 L7.96853799,5.29721443 L7.91135337,5.33218626 L7.85734567,5.36723962 L7.85734567,5.36723962 L7.80325652,5.4053092 L7.74924883,5.44036255 L7.69515967,5.47859517 L7.64115198,5.51348549 L7.64115198,5.51348549 L7.58714428,5.5517181 L7.53305513,5.58995072 L7.42495828,5.66299213 L7.37095059,5.70122475 L7.31686143,5.73945736 L7.31686143,5.73945736 L7.2659492,5.77760846 L7.21194151,5.81584107 L7.21194151,5.81584107 L7.15785235,5.85717143 L7.10694012,5.89540404 L7.1037632,5.89540404 L7.05285097,5.93347362 L7.00226458,5.97170623 L6.99884327,5.97170623 L6.94825688,6.01303659 L6.89734465,6.0512692 L6.89734465,6.0512692 L6.84333696,6.09259956 L6.79242473,6.13083217 L6.79242473,6.13401143 L6.74151249,6.17216253 L6.6875048,6.21349288 L6.63659257,6.25490475 L6.58568034,6.29313737 L6.58568034,6.29313737 L6.53476811,6.33446772 L6.48385588,6.37579808 L6.48385588,6.37579808 L6.43326948,6.41720995 L6.38235725,6.45845878 L6.38235725,6.45845878 L6.33144502,6.49987066 L6.28053279,6.54438027 L6.18188525,6.62720401 L6.13097302,6.66853437 L6.08348209,6.7131255 L6.08348209,6.7131255 L6.03256986,6.75437433 L5.98483456,6.79896546 L5.98483456,6.79896546 L5.93392232,6.8402143 L5.88618702,6.88496847 L5.88618702,6.88496847 L5.83551917,6.92939656 L5.78778386,6.97390617 L5.68913632,7.05974614 L5.59399154,7.14884688 L5.49852093,7.23802914 L5.45078562,7.28253875 L5.40329469,7.3301461 L5.40329469,7.3301461 L5.35555938,7.37481876 L5.31091954,7.41924685 L5.26318423,7.46383798 L5.2156933,7.51160837 L5.2156933,7.51160837 L5.17113492,7.55603646 L5.12339961,7.60372533 L5.0313503,7.69600533 L4.93930098,7.79138307 L4.85010276,7.88366307 L4.75805344,7.97912233 L4.66918105,8.07450007 L4.57998282,8.16995933 L4.4942059,8.26851632 L4.40533351,8.36715484 L4.31955658,8.4626141 L4.23353528,8.5611711 L4.19239819,8.61212074 L4.14783981,8.66298887 L4.14783981,8.66298887 L4.10670273,8.71377548 L4.06523981,8.76154587 L4.02410272,8.81249552 L3.97954434,8.86328212 L3.97954434,8.86328212 L3.93840726,8.91423177 L3.89694434,8.96518142 L3.8174398,9.06683615 L3.77630271,9.1177858 L3.73483979,9.16865393 L3.73483979,9.16865393 L3.69370271,9.21960358 L3.65541671,9.27373248 L3.65541671,9.27373248 L3.61427963,9.32443757 L3.57281671,9.37848496 L3.53485655,9.4294346 L3.49648909,9.48038425 L3.49648909,9.48038425 L3.45535201,9.53443164 L3.41706601,9.58529976 L3.41706601,9.58847902 L3.37902439,9.63942867 L3.34098277,9.69347605 L3.33756147,9.69347605 L3.29951985,9.74426266 L3.26147824,9.79831005 L3.26147824,9.79831005 L3.22319224,9.85243895 L3.18832754,9.90640482 L3.18515062,9.90640482 L3.15028592,9.96053372 L3.11199993,10.0145811 L3.11199993,10.0145811 L3.07395831,10.0655308 L3.03876777,10.1227574 L3.03559085,10.1227574 L3.00072615,10.1768048 L2.96268454,10.2308522 L2.96268454,10.2308522 L2.927494,10.2848996 L2.88945238,10.3389469 L2.88945238,10.3389469 L2.85458769,10.3930758 L2.81939715,10.450221 L2.81939715,10.450221 L2.78453246,10.5043499 L2.74649084,10.5583973 L2.74649084,10.5583973 L2.7113003,10.6156239 L2.67643561,10.6696713 L2.60638038,10.7810268 L2.53974645,10.8954801 C3.23272301,11.2963112 3.99860588,11.6270355 4.37999958,11.9577599 L4.43091181,11.989634 C4.58983943,12.0786532 4.65965028,12.2631317 4.61191497,12.4316324 L4.60873805,12.4412517 L4.60873805,12.4443494 L4.60556113,12.450871 L4.60238421,12.4570664 L4.59920728,12.4666857 L4.59920728,12.4697835 L4.59603036,12.4762235 L4.59285344,12.4856798 L4.58649959,12.4952175 L4.58649959,12.4952175 L4.58307829,12.5047553 L4.57990136,12.5111138 L4.57362898,12.5206516 L4.57045205,12.5301894 L4.56417967,12.5396456 L4.55758144,12.5460857 L4.55758144,12.5460857 L4.55130906,12.5556234 L4.54503667,12.5619819 L4.54185975,12.5681774 L4.54185975,12.5715197 L4.52898913,12.5842367 L4.52581221,12.5873345 L4.52263529,12.5936115 L4.51318598,12.6000515 C4.39229998,12.7240426 4.1984262,12.7526559 4.0426755,12.6635552 L3.98858635,12.6317626 C3.51204787,12.4664412 2.83821431,11.9702324 2.14865906,11.5694828 C0.83585664,13.9612631 0.0637013832,16.6933869 0,19.5972723 L0.0606059196,19.5972723 C0.839033564,19.5940115 1.64328389,19.5050738 2.12324367,19.5972723 L2.18360521,19.5972723 C2.36802968,19.5972723 2.52035907,19.7245241 2.56182199,19.8929432 L2.56499892,19.8994648 L2.56817584,19.9056603 L2.56817584,19.9090026 L2.57135276,19.9183773 L2.57135276,19.9279966 L2.57135276,19.9342736 L2.57135276,19.9375344 L2.57452969,19.9502514 L2.57452969,19.9597077 L2.57452969,19.9597077 L2.57452969,19.9692454 L2.57452969,19.9787832 L2.57452969,19.9882395 L2.57452969,19.9978588 L2.57452969,20.0105758 L2.57452969,20.0167713 L2.57452969,20.0201136 L2.57452969,20.0294883 L2.57135276,20.0391076 L2.57135276,20.0455476 L2.57135276,20.0486454 L2.57135276,20.0582647 L2.56817584,20.0676394 L2.56817584,20.0708187 L2.56499892,20.0771772 L2.56182199,20.0867965 C2.52035907,20.2552971 2.36802968,20.3793697 2.18360521,20.3793697 L2.12324367,20.3793697 C1.64328389,20.4715682 0.839033564,20.3824675 0.0606059196,20.3793697 L0,20.3793697 C0.0668783064,23.2863528 0.8359381,26.0153789 2.14865906,28.4071591 C2.84130978,28.0095889 3.51204787,27.5102008 3.98858635,27.3448794 L4.0426755,27.3130053 C4.19850766,27.2239861 4.39229998,27.2556971 4.51318598,27.3765904 L4.52263529,27.3862097 L4.52581221,27.3893075 L4.52898913,27.3924052 L4.54185975,27.4083015 L4.54185975,27.4083015 L4.54503667,27.41466 L4.55130906,27.4241163 L4.55758144,27.4305563 L4.55758144,27.4305563 L4.56417967,27.4400941 L4.57045205,27.4464526 L4.57362898,27.4559904 L4.57990136,27.4655281 L4.58307829,27.4718867 L4.58649959,27.4814244 L4.58649959,27.4814244 L4.59285344,27.4907992 L4.59603036,27.5004185 L4.59920728,27.5068585 L4.59920728,27.5099562 L4.60238421,27.5195755 L4.60556113,27.5289503 L4.60873805,27.5321295 L4.60873805,27.538488 L4.61191497,27.5448466 C4.65965028,27.7134288 4.58983943,27.8978257 4.43091181,27.987008 L4.37999958,28.018719 C3.99860588,28.3496879 3.23280447,28.6834285 2.53974645,29.0811618 L2.60638038,29.1956151 L2.67643561,29.3068892 L2.74649084,29.4181632 L2.81939715,29.526258 L2.88937092,29.637695 L2.96252162,29.7457898 L3.03860485,29.8538846 L3.11175555,29.9620609 L3.18808316,30.0701556 L3.22294786,30.124203 L3.26123386,30.1783319 L3.26123386,30.1783319 L3.29927548,30.2323793 L3.3407384,30.2862636 L3.41682163,30.3912607 L3.49632617,30.4962577 L3.57265379,30.6012547 L3.65533525,30.702991 L3.73483979,30.807988 L3.8174398,30.9096428 L3.89694434,31.0114605 L3.97954434,31.1131968 L4.06532126,31.2150146 L4.14800273,31.3135716 L4.23377965,31.4154709 L4.31980096,31.5140279 L4.40557789,31.6125849 L4.40557789,31.6125849 L4.44989189,31.6603553 L4.49445028,31.7079626 L4.49445028,31.7079626 L4.5359132,31.7589122 L4.5802272,31.8066826 L4.5802272,31.8066826 L4.62478559,31.8543715 L4.66942543,31.9021419 L4.66942543,31.9021419 L4.71373944,31.9497492 L4.75829782,31.9975196 L4.85034713,32.0929789 L4.93954536,32.1883566 L5.03159468,32.2804736 L5.12364399,32.3727536 L5.1713793,32.4206055 L5.21593768,32.4650336 L5.21593768,32.4650336 L5.26342861,32.512804 L5.31116392,32.5573136 L5.40353907,32.6495936 L5.49868385,32.7386128 L5.59415446,32.8277136 L5.68929924,32.9167328 L5.78794678,33.0058335 L5.88634994,33.091755 L5.93408524,33.1363461 L5.98499747,33.1776765 L5.98499747,33.1776765 L6.03273278,33.2221861 L6.08364501,33.263598 L6.08364501,33.263598 L6.13113594,33.3081076 L6.18204817,33.349438 L6.28069571,33.435441 L6.38252017,33.5181017 L6.4334324,33.5595135 L6.4840188,33.6008439 L6.4840188,33.6008439 L6.53493103,33.6421742 L6.58584326,33.6835046 L6.58584326,33.6835046 L6.63675549,33.7249165 L6.68766772,33.7631491 L6.74167541,33.8044794 L6.79258764,33.8458098 L6.79258764,33.8458098 L6.84349988,33.8840424 L6.89750757,33.9253728 L6.99900619,34.0049357 L7.10392612,34.0812379 L7.21202297,34.1608009 L7.31694289,34.2371846 L7.42503974,34.3134868 L7.53313659,34.3866912 L7.64123344,34.4629934 L7.74933029,34.5361979 L7.85742713,34.6092393 L7.96861945,34.6822807 L8.07981176,34.7523874 L8.18782715,34.8223311 L8.30252222,34.8921933 L8.41371453,34.9621369 C8.81082993,34.2687326 9.14782817,33.5023684 9.47521418,33.1205314 L9.50690195,33.066484 C9.59267888,32.9138796 9.7707495,32.8439359 9.93603096,32.882087 L9.93603096,32.882087 L9.95484812,32.888364 L9.96144635,32.8914618 L9.96462327,32.8914618 L9.97407258,32.8948041 L9.98376627,32.8979018 L9.98694319,32.8979018 L9.99321558,32.9010811 L9.99948797,32.9041788 L10.0089373,32.9106188 L10.0123586,32.9106188 L10.018631,32.9137981 L10.0280803,32.9168958 L10.037774,32.9233359 L10.0598495,32.9391506 L10.0630264,32.9391506 L10.0696247,32.9454276 L10.079074,32.9487699 L10.0822509,32.9550469 L10.0854278,32.9550469 L10.0951215,32.961487 L10.1013939,32.967764 L10.1045708,32.9708617 L10.1077477,32.974204 L10.1140201,32.9835787 C10.238083,33.104472 10.2698523,33.2984068 10.1808984,33.4543535 L10.1491292,33.5084008 C9.98392919,33.9854526 9.48474495,34.6597814 9.08738517,35.3500064 C11.4744764,36.6635291 14.2043495,37.4363333 17.1092792,37.5 L17.1092792,37.4395941 C17.1061023,36.6602683 17.0172299,35.8587692 17.1092792,35.375522 L17.1092792,35.3150346 C17.1092792,35.1337354 17.2333421,34.9777887 17.401719,34.9364583 L17.4111683,34.9332791 L17.4177666,34.9332791 L17.4209435,34.9301813 L17.4303928,34.9301813 L17.4400865,34.9270021 L17.4432634,34.9270021 L17.4495358,34.9270021 L17.4589851,34.9237413 L17.4718557,34.9237413 L17.4718557,34.9237413 L17.481305,34.9237413 L17.4907543,34.9237413 L17.5005295,34.9237413 L17.5099788,34.9237413 L17.5194281,34.9237413 L17.5291218,34.9237413 L17.5291218,34.9237413 L17.5385711,34.9237413 L17.5514417,34.9270021 L17.5577141,34.9270021 L17.560891,34.9270021 L17.5703403,34.9301813 L17.5801155,34.9301813 L17.583211,34.9332791 L17.5894833,34.9332791 L17.5989326,34.9364583 C17.767554,34.9777887 17.8913725,35.1337354 17.8913725,35.3150346 L17.8913725,35.375522 C17.9837477,35.8588507 17.8945494,36.6603498 17.8913725,37.4395941 L17.8913725,37.5 C20.7962207,37.4363333 23.5233242,36.6635291 25.9132665,35.3500064 C25.5159067,34.6597814 25.0170483,33.9854526 24.8518483,33.5084008 L24.8200791,33.4543535 C24.7308809,33.2984068 24.7629759,33.104472 24.886713,32.9835787 L24.8929039,32.974204 L24.8964067,32.9708617 L24.8995022,32.967764 L24.9089515,32.961487 L24.9152239,32.9550469 L24.9183193,32.9550469 L24.9214962,32.9487699 L24.9311899,32.9454276 L24.9374623,32.9391506 L24.9405578,32.9391506 L24.9628777,32.9233359 L24.972327,32.9168958 L24.9820207,32.9137981 L24.9882931,32.9106188 L24.9913886,32.9106188 L25.0008379,32.9041788 L25.0074361,32.9010811 L25.013627,32.8979018 L25.0168039,32.8979018 L25.0261718,32.8948041 L25.0359469,32.8914618 L25.0390424,32.8914618 L25.0453963,32.888364 L25.0644578,32.882087 L25.0644578,32.882087 C25.2265623,32.8438544 25.4075655,32.9138796 25.4935868,33.066484 L25.5254375,33.1205314 C25.855919,33.5023684 26.1894959,34.2687326 26.5868557,34.9621369 L26.7011435,34.8921933 L26.8123358,34.8223311 L26.9204326,34.7523874 L26.9776172,34.7173341 L27.0316249,34.6821992 L27.0316249,34.6821992 L27.0888095,34.6441296 L27.1427358,34.6090763 L27.1427358,34.6090763 L27.1968249,34.5708437 L27.2508326,34.5359533 L27.3048403,34.4977207 L27.3589295,34.4626674 L27.3589295,34.4626674 L27.4129372,34.4244347 L27.4669449,34.3863652 L27.5749603,34.3131607 L27.6290494,34.2749281 L27.6830571,34.2368585 L27.6830571,34.2368585 L27.7338879,34.1987074 L27.787977,34.1604748 L27.787977,34.1604748 L27.8419847,34.1222422 L27.8928155,34.0809118 L27.8959924,34.0809118 L27.9469047,34.0426792 L28.0009123,34.0046097 L28.0009123,34.0046097 L28.0518246,33.9631163 L28.1026553,33.9250467 L28.1026553,33.9250467 L28.1567445,33.8837163 L28.2076567,33.8454837 L28.2076567,33.8454837 L28.2584875,33.8041534 L28.3124952,33.762823 L28.3630816,33.7245904 L28.4139938,33.6831785 L28.4139938,33.6831785 L28.4649061,33.6418482 L28.5158183,33.6005178 L28.5158183,33.6005178 L28.5666491,33.5591875 L28.6175613,33.5177756 L28.6175613,33.5177756 L28.6683921,33.4764452 L28.7193043,33.4351149 L28.817626,33.3491119 L28.8685382,33.3077815 L28.9162735,33.2632719 L28.9162735,33.2632719 L28.9671858,33.22186 L29.018098,33.1773504 L29.018098,33.1773504 L29.0655075,33.1360201 L29.1132428,33.0914289 L29.1132428,33.0914289 L29.164155,33.0469193 L29.2118903,33.0055075 L29.310212,32.9164067 L29.4057641,32.8273875 L29.5009089,32.7382867 L29.5487256,32.6937771 L29.5964609,32.6492675 L29.5964609,32.6492675 L29.6441962,32.6014971 L29.6885102,32.5569875 L29.7362456,32.5124779 L29.7839809,32.4647075 L29.7839809,32.4647075 L29.8317162,32.4202794 L29.8760302,32.3724275 L29.9684053,32.2801475 L30.0604546,32.1880306 L30.1494085,32.0926528 L30.2417836,31.9971936 L30.330656,31.9018158 L30.4196099,31.8063566 L30.5053868,31.7076365 L30.594585,31.6122588 L30.6804434,31.5137018 L30.7662203,31.4151448 L30.8107787,31.3641951 L30.8519973,31.3132455 L30.8519973,31.3132455 L30.8934602,31.2656381 L30.9345973,31.2146885 L30.9760602,31.1638204 L31.0203742,31.1128707 L31.0203742,31.1128707 L31.0619186,31.0620841 L31.1030557,31.0111345 L31.1825602,30.9093167 L31.2240231,30.8585301 L31.2652417,30.807662 L31.2652417,30.807662 L31.3067046,30.7567123 L31.3447462,30.7026649 L31.3447462,30.7026649 L31.3862091,30.6517153 L31.4273462,30.6009287 L31.4657137,30.5468813 L31.5037553,30.4959316 L31.5068507,30.4959316 L31.5452182,30.4418843 L31.5832598,30.3909346 L31.5832598,30.3909346 L31.6215458,30.3368872 L31.6595874,30.2859376 L31.6627644,30.2828398 L31.700806,30.2320532 L31.739092,30.1780058 L31.739092,30.1780058 L31.7771336,30.1238769 L31.8123241,30.0698295 L31.8155011,30.0698295 L31.8503658,30.0157822 L31.8884074,29.9648325 L31.8884074,29.9617348 L31.9267748,29.9107851 L31.9616395,29.8535585 L31.9648164,29.8535585 L32,29.8026088 L32.0380486,29.7454637 L32.0380486,29.7454637 L32.0729133,29.6914163 L32.1112808,29.6373689 L32.1112808,29.6373689 L32.1461454,29.58324 L32.1810916,29.5259319 L32.1810916,29.5259319 L32.2159563,29.471803 L32.2543238,29.4178371 L32.2543238,29.4178371 L32.2891885,29.3605289 L32.3241346,29.3065631 L32.3941084,29.195289 L32.4609867,29.0808358 C31.7711056,28.6831024 31.0021273,28.3492803 30.6207336,28.018393 L30.5699028,27.9866819 C30.4108937,27.8974996 30.3408385,27.7131842 30.3885738,27.5445205 L30.3917507,27.538162 L30.3917507,27.5318034 L30.3948462,27.5286242 L30.3980231,27.5192495 L30.4014444,27.5096302 L30.4014444,27.5065324 L30.4045399,27.5000924 L30.4077168,27.4904731 L30.4139892,27.4810984 L30.4139892,27.4810984 L30.4170846,27.4715606 L30.4202616,27.4652021 L30.4265339,27.4556643 L30.4299552,27.4461265 L30.4362276,27.439768 L30.4425,27.4302302 L30.4425,27.4302302 L30.4487724,27.4237902 L30.4553706,27.4143339 L30.4585476,27.4079754 L30.461643,27.4079754 L30.4710923,27.3920791 L30.4741878,27.3889814 L30.4773647,27.3858837 L30.4870584,27.3762644 C30.6077,27.2522733 30.8014923,27.22366 30.9573245,27.3126792 L31.0113322,27.3445533 C31.4881965,27.5098747 32.1617042,28.0092628 32.8515853,28.4068331 C34.1639804,26.0150528 34.936543,23.2861082 35,20.3790436 L34.9396385,20.3790436 C34.160885,20.3821414 33.3569605,20.4712421 32.8770007,20.3790436 L32.8167206,20.3790436 C32.6322962,20.3790436 32.4796409,20.2550526 32.4385038,20.0864704 L32.4353269,20.0768511 L32.4319056,20.0704926 L32.4319056,20.0673133 L32.4319056,20.0579386 L32.4288102,20.0483193 L32.4288102,20.0452215 L32.4288102,20.0387815 L32.4256332,20.0291622 L32.4256332,20.0197875 L32.4256332,20.0164452 L32.4256332,20.0102497 L32.4256332,19.9975327 L32.4256332,19.9879134 L32.4256332,19.9784571 L32.4256332,19.9689194 L32.4256332,19.9593816 L32.4256332,19.9593816 L32.4256332,19.9499253 L32.4288102,19.9372083 L32.4288102,19.9339475 L32.4288102,19.9276705 L32.4319056,19.9180512 L32.4319056,19.9086765 L32.4319056,19.9053342 L32.4353269,19.8991387 L32.4385038,19.8926172 C32.4796409,19.7210188 32.6322962,19.5969462 32.8167206,19.5969462 L32.8770007,19.5969462 C33.3570419,19.5047477 34.1609664,19.5936854 34.9396385,19.5969462 L35,19.5969462 C34.9333661,16.6931424 34.1639804,13.960937 32.8515853,11.5691567 C32.1585273,11.9699063 31.4881965,12.4661151 31.0113322,12.6314365 L30.9573245,12.6632291 C30.8014923,12.7523298 30.6077,12.7206188 30.4870584,12.5997254 L30.4773647,12.5932854 L30.4741878,12.5870084 L30.4710923,12.5839107 L30.461643,12.5711936 L30.4585476,12.5678513 L30.4553706,12.5616559 L30.4487724,12.5552974 L30.4425,12.5457596 L30.4425,12.5457596 L30.4362276,12.5393195 L30.4299552,12.5298633 L30.4265339,12.5203255 L30.4202616,12.5107877 L30.4170846,12.5044292 L30.4139892,12.4948914 L30.4139892,12.4948914 L30.4077168,12.4853537 L30.4045399,12.4758974 L30.4014444,12.4694574 L30.4014444,12.4663596 L30.3980231,12.4567404 L30.3948462,12.4505449 L30.3917507,12.4440233 L30.3917507,12.4409256 L30.3885738,12.4313063 C30.3408385,12.2628871 30.4108122,12.0783271 30.5699028,11.9893079 L30.6207336,11.9574338 C31.0021273,11.6266279 31.7711056,11.2959851 32.4609867,10.895154 C30.5755235,8.34115014 29.2818641,6.84298596 26.5868557,5.01426047 M23.4498477,2.68296766 L23.5738291,2.72429801 L23.5832784,2.72739575 L23.6975662,2.76880762 L23.7167907,2.77834539 L23.8216291,2.81331723 L23.8503029,2.82595274 L23.9454477,2.86108762 L23.9838151,2.87380465 L24.0664152,2.90877649 L24.1173274,2.92467278 L24.1904781,2.95654688 L24.2476627,2.97880169 L24.3111197,3.00415423 L24.3776722,3.02966981 L24.4317613,3.05192462 L24.5080889,3.0837172 L24.5558242,3.10287427 L24.6385057,3.13776458 L24.6733704,3.15382391 L24.768841,3.19507275 L24.7943379,3.204529 L24.8992578,3.25238091 L24.9149795,3.25857639 L25.0260903,3.30952604 L25.03277,3.31270529 L25.1533302,3.36675268 L25.1565071,3.36675268 L25.2707949,3.42080006 L25.283584,3.4272401 L25.3885854,3.47802671 L25.4108239,3.48756448 L25.5059687,3.53541639 L25.5378194,3.5480519 L25.5568809,3.55750816 L25.6618008,3.61155554 L25.7381284,3.64978816 L25.7887963,3.67522222 L25.8556746,3.7103571 L25.9127777,3.73897042 L25.9699624,3.76766526 L26.0368407,3.80589788 L26.1606592,3.87241774 L26.1990267,3.89165632 L26.2848036,3.93926367 L26.3133959,3.9519807 L26.4086221,4.00602809 L26.4277651,4.01564738 L26.5295081,4.07597177 L26.5389575,4.07923254 L26.6500683,4.14599696 L26.6532452,4.14599696 L26.7644375,4.2095006 L26.7710358,4.21594064 L26.8759557,4.27626502 L26.8916774,4.28588431 L26.987148,4.34302944 L27.0126449,4.35892573 L27.0984218,4.40987537 L27.1332865,4.43213018 L27.2064372,4.47973753 L27.2507512,4.50843237 L27.3176295,4.5496812 L27.3685417,4.58171834 L27.4256449,4.61986944 L27.4860064,4.65793901 L27.5337417,4.68989463 L27.6034711,4.73432273 L27.6418386,4.75983831 L27.7181662,4.81396721 L27.7499354,4.83287972 L27.8357123,4.89344866 L27.8547739,4.90608418 L27.9500816,4.97293011 L27.9628707,4.97920711 L28.0643694,5.05224852 L28.0677907,5.0555093 L28.1724662,5.12855071 L28.178983,5.13172997 L28.2773047,5.20493443 L28.2901753,5.21430916 L28.3822246,5.2811551 L28.4013676,5.29713291 L28.4839676,5.36063655 L28.5158183,5.38289135 L28.5857921,5.43693874 L28.6270106,5.46563358 L28.6903861,5.51658323 L28.735026,5.55147355 L28.7921291,5.59606468 L28.8462183,5.63747655 L28.8907767,5.67554613 L28.9542337,5.72649577 L28.9926011,5.75510909 L29.0622491,5.81249878 L29.0940998,5.83785132 L29.1704274,5.90143648 L29.1927473,5.92043051 L29.2785242,5.9904557 L29.2913134,6.00317274 L29.3833627,6.08265419 L29.3896351,6.08591496 L29.4882826,6.17175493 L29.4882826,6.17175493 L29.5835089,6.25449716 L29.5963795,6.26403493 L29.6789795,6.34033712 L29.6981225,6.35631493 L29.7742057,6.42625861 L29.8030424,6.45177419 L29.8695949,6.51527783 L29.904541,6.54715193 L29.9648211,6.60128083 L30.006284,6.63935041 L30.0602917,6.69021854 L30.108027,6.73472815 L30.152341,6.77931928 L30.2447162,6.8683385 L30.3081732,6.92882592 L30.3367655,6.95752077 L30.4068207,7.02738292 L30.4290592,7.04963773 L30.4353316,7.05599624 L30.4447809,7.06553402 L30.4510533,7.07181101 L30.4576515,7.07825105 L30.4670193,7.08778882 L30.4732917,7.09414734 L30.4795641,7.10034282 L30.4892578,7.10996211 L30.4956117,7.11640215 L30.501884,7.12259762 L30.5049795,7.12577688 L30.5084008,7.13221692 L30.5178501,7.13849391 L30.5241225,7.14493395 L30.5303949,7.1543902 L30.5400886,7.16074872 L30.546361,7.16710723 L30.5526334,7.17664501 L30.5589057,7.18308504 L30.5686809,7.18936204 L30.5749533,7.19889981 L30.5812257,7.20525833 L30.5971917,7.22099158 L30.6034641,7.22751314 L30.6034641,7.22751314 L30.6097365,7.23370861 L30.6194302,7.24332791 L30.6257026,7.2496049 L30.631975,7.25604494 L30.6414243,7.26566423 L30.6480225,7.27185971 L30.6542949,7.27838126 L30.6605673,7.287756 L30.670261,7.29411451 L30.6765334,7.30365229 L30.6828057,7.3100108 L30.6922551,7.3162878 L30.6987718,7.32590709 L30.6987718,7.32590709 L30.7050442,7.33226561 L30.7113166,7.33862413 L30.7207659,7.3481619 L30.7273641,7.3544389 L30.7399089,7.37025367 L30.7492768,7.37677522 L30.755875,7.386313 L30.7621474,7.39258999 L30.7684198,7.39886699 L30.7781134,7.40840476 L30.7843858,7.4148448 L30.7906582,7.42112179 L30.7969306,7.42756183 L30.7969306,7.43065957 L30.8067058,7.43701808 L30.8129781,7.44655586 L30.8192505,7.45283285 L30.8255229,7.45927289 L30.8352166,7.46881066 L30.841489,7.47516918 L30.8477614,7.48470695 L30.8540338,7.49098395 L30.860632,7.49742399 L30.8699998,7.50679872 L30.8763537,7.51323876 L30.8826261,7.52285805 L30.8891428,7.52905353 L30.9972397,7.40824172 L31.0097845,7.39242695 L31.0097845,7.39242695 L31.0257505,7.37343292 L31.0414722,7.3573736 L31.0542614,7.33846109 L31.0699831,7.3225648 L31.0828537,7.30348925 L31.0985754,7.2844137 L31.1113645,7.26859893 L31.1525831,7.21455155 L31.1653722,7.19539448 L31.1810939,7.17640045 C31.3814845,6.90926126 31.5498614,6.61668801 31.6865506,6.30813694 C31.9280782,5.7547015 32.0615904,5.14403941 32.0615904,4.498487 L32.0615904,4.44109732 L32.0615904,4.38395219 L32.0584135,4.35843661 L32.0584135,4.34898035 C32.0138551,3.26110349 31.5752768,2.21154076 30.8380677,1.41322093 L30.8189247,1.3942269 L30.8029586,1.37506983 L30.764917,1.33700026 L30.745774,1.31792471 C30.0084834,0.580092302 29.0135363,0.0966005309 27.910981,0.0139398234 L27.8537149,0.00758130748 L27.7966117,0.00432053007 L27.7488764,0.00432053007 L27.7391828,0.00432053007 L27.7297334,0.00122279153 L27.5645334,0.00122279153 L27.481852,0.00122279153 L27.4724027,0.00122279153 L27.396075,0.00432053007 L27.3832859,0.00432053007 L27.3388904,0.00432053007 L27.3133936,0.00758130748 L27.2911551,0.00758130748 L27.2465967,0.0107605655 L27.230875,0.0107605655 L27.2022013,0.0139398234 L27.148275,0.0202983394 L27.1130845,0.0234775974 L27.068689,0.0265753359 L27.0655936,0.0265753359 L27.0241307,0.0330153713 L26.9829121,0.0361946293 L26.9794908,0.0361946293 L26.9763953,0.0392923678 L26.8208076,0.0616286931 L26.8048415,0.0647264316 L26.738289,0.074345725 L26.719146,0.0805412021 C26.6459953,0.093258234 26.5727632,0.109236043 26.5030338,0.125132333 L26.4999383,0.128311591 C26.4298831,0.144207881 26.3601537,0.163283429 26.2931939,0.182440496 L26.2646016,0.191815231 L26.2520569,0.194994489 C26.1280754,0.233227104 26.003931,0.277818236 25.8832894,0.325425586 L25.8832894,0.325425586 L25.8069618,0.357299685 L25.8037848,0.357299685 L25.6608233,0.420884845 L25.6480341,0.42732488 L25.6099925,0.446318908 L25.5876726,0.455938202 L25.5717065,0.465312937 L25.5336649,0.484470004 L25.5179432,0.494007778 L25.4957048,0.503464033 L25.4573373,0.52253958 L25.4447925,0.528898096 L25.4192957,0.544712867 L25.3810097,0.563869934 L25.3747373,0.567049192 L25.3460635,0.585961701 L25.3080219,0.605118768 L25.3049264,0.608216507 L25.2697359,0.627292055 L25.2347898,0.649546861 L25.2347898,0.649546861 L25.1967481,0.671801666 L25.1681558,0.690877214 L25.1615576,0.693974953 L25.1266929,0.716229759 L25.1011961,0.735223787 L25.0918282,0.741663823 L25.0568821,0.763837109 L24.9519621,0.837041562 L24.8882607,0.881469654 L24.8596684,0.90372446 L24.8373485,0.91962075 L24.8310761,0.925897746 L24.7993069,0.948234072 L24.7738915,0.967146581 L24.7707146,0.973668135 L24.7420408,0.995922941 L24.7134485,1.01801471 L24.7134485,1.01801471 L24.6848562,1.04353029 L24.6276716,1.09130068 L24.5990793,1.11665323 L24.5893856,1.12309326 L24.570487,1.14208729 C24.5227517,1.18349916 24.4781933,1.224748 24.4337978,1.26942065 L24.4147363,1.28523542 L24.4050426,1.29485471 L24.3797901,1.32020726 C24.2717747,1.42838355 24.1731272,1.53973909 24.0775751,1.65419238 L24.055581,1.68606648 L24.036438,1.70514203 L24.0301656,1.71476132 L24.0079272,1.74337464 L23.9632873,1.80369903 L23.9410489,1.83239387 L23.9410489,1.83239387 L23.9189733,1.86426797 L23.8967349,1.89296281 L23.8935579,1.8992398 L23.8744964,1.92475539 L23.8521765,1.95654797 L23.8330335,1.98842207 L23.8110394,2.02029617 L23.8013457,2.03293168 L23.7918964,2.04874645 L23.7695765,2.08078359 L23.7505149,2.11249465 L23.7316163,2.14428723 L23.7157317,2.16980281 L23.7093779,2.1794221 L23.6903163,2.21113316 L23.6745946,2.239828 L23.6711733,2.24292574 L23.6523562,2.27488136 L23.6363086,2.30977168 L23.6332132,2.31311398 L23.6172471,2.3417273 L23.5983485,2.37351988 L23.5918317,2.38623691 L23.5823824,2.40849172 L23.5632394,2.4402843 L23.5570485,2.45927832 L23.5283747,2.51022797 L23.5190068,2.53248278 L23.512653,2.54519981 L23.4966869,2.57699239 L23.4838978,2.60560571 L23.4807208,2.61204575 L23.4649992,2.64701758 L23.4498477,2.68296766 Z M24.2983305,17.4056222 C24.3017518,17.4152415 25.2168686,20.8024556 22.75402,23.0224744 C22.5950924,23.165704 22.5822218,23.4136861 22.7285232,23.5727306 C22.8714847,23.7316935 23.1192847,23.7444105 23.2782124,23.5981646 C26.0941882,21.0633178 25.0547641,17.2244045 25.0515872,17.2148668 C25.0007564,17.0081335 24.7880655,16.8808001 24.5814025,16.9317498 C24.3715627,16.9857971 24.2443228,17.1957912 24.2983305,17.4056222 Z M18.1232064,23.9575838 C17.9768236,24.1166282 17.9896942,24.3646919 18.1487033,24.5079215 C18.3108078,24.6509881 18.5555124,24.6382711 18.6984739,24.4791452 C18.7047463,24.4727866 21.0438578,22.0491323 20.151061,20.684823 C19.6327337,19.8926987 20.3668474,19.3203507 20.3668474,19.3171715 C20.5354687,19.1866589 20.5672379,18.9386767 20.4337257,18.7701761 C20.3002134,18.6015123 20.0554274,18.5698013 19.8871319,18.7034116 C19.883955,18.7065094 18.5840232,19.7147418 19.49914,21.1109251 C20.0364473,21.9348421 18.1264648,23.9512253 18.1232064,23.9575838 Z M16.2987565,21.8234865 L16.3561855,21.8997072 C16.416547,21.9920687 16.4705547,22.1066035 16.5148687,22.2337738 C16.7121638,22.7903885 16.7502054,23.5282209 16.7375792,23.8208757 C16.7247085,24.034049 16.8930855,24.218446 17.1060208,24.2279838 C17.322133,24.2375215 17.5033806,24.0721186 17.5160068,23.8558476 C17.5319729,23.5123247 17.4842376,22.6409634 17.2493082,21.9761724 C17.1953005,21.823568 17.1315176,21.6803384 17.05519,21.5499073 C17.0680606,21.3209192 17.1220683,20.7897386 17.3319082,20.7325119 C17.6812068,20.6371342 17.7861267,20.4558349 17.7067037,20.1665225 L17.7036082,20.1538054 C17.6561173,19.994761 17.5384082,19.896204 17.3731267,19.7594144 L17.3636774,19.7529744 C17.0362914,19.4795582 16.4068533,18.9450352 16.4290918,17.8255288 C16.4419624,17.6856415 16.3781795,17.5455911 16.2544425,17.4661097 C15.456546,16.941369 15.3327274,16.5691513 15.4058781,16.3276092 C16.6769732,18.7733553 22.3216326,17.4852667 22.3374358,17.4820875 C22.5472756,17.4343171 22.6807879,17.2276653 22.6330526,17.0176712 C22.5884127,16.8078402 22.3788987,16.6773276 22.1690589,16.7220002 C22.1530928,16.725098 15.8667764,18.1562532 15.9302334,15.1476154 C15.9968673,12.1260975 19.7759396,13.0643047 19.7853075,13.0674024 L19.928269,13.0738425 C19.931446,13.0738425 22.1596096,12.8830055 21.4188977,10.3894075 L21.3617131,10.1700387 C21.3745837,10.1541424 21.5586823,10.2430801 21.813162,10.3798697 C22.1882019,10.5865215 22.617005,10.9333051 22.9447169,11.3339732 C23.2940155,11.7602383 23.5261753,12.23729 23.4118061,12.6094263 C22.6298756,12.4821744 21.8417543,12.7811877 21.1647438,13.6432557 C19.7916613,15.395679 17.3413575,15.0840302 17.3350851,15.0840302 C17.1221498,15.0553354 16.928276,15.2080213 16.8996837,15.4211946 C16.8710914,15.6341234 17.0235022,15.8282212 17.2364376,15.856916 C17.24271,15.856916 20.134932,16.2226122 21.7782158,14.1265845 C22.3088435,13.4490764 22.9063494,13.258321 23.4720861,13.4173654 L23.5199029,13.4332617 C24.2602889,13.665429 24.9752596,14.4415756 25.4775393,15.5166539 C25.9955407,16.6328995 26.2688375,18.0577777 26.0844131,19.5239863 C25.7477407,22.2084213 23.8663504,25.0327436 19.1529369,26.3972159 C18.5648802,26.3367285 14.9481568,26.0219005 15.145126,27.5231624 C15.1608477,27.6407134 14.9004215,27.8442674 14.4967893,28.0574408 C14.1439879,28.2420008 13.6926205,28.4008821 13.2000344,28.4932437 C12.7074484,28.5854422 12.1733995,28.6108762 11.658575,28.5314763 C10.5939799,28.3660734 9.58021557,27.739515 9.11622186,26.2953982 C8.01016383,22.850876 10.8069152,21.527897 11.4267411,21.2798334 C11.8524488,21.4229 13.2477698,21.8395458 13.9279572,21.4387963 L14.0454219,21.3752927 C14.2298463,21.2798334 14.3825016,21.24478 14.4936939,21.2511386 L14.5160138,21.2575786 C14.5700215,21.2638556 14.6048862,21.2830127 14.6209337,21.3051859 L14.6334785,21.324343 C14.7541201,21.5565104 14.9768306,21.6836807 15.2149369,21.7473474 C15.5105537,21.8237311 15.8699533,21.7951177 16.0128334,21.7441681 L16.133475,21.7219133 C16.1907411,21.7247665 16.2447488,21.7629991 16.2987565,21.8234865 Z M7.37437189,0.00171190814 L7.21226735,0.00171190814 L7.19964111,0.00480964668 L7.19336873,0.00480964668 L7.14245649,0.00480964668 L7.08527188,0.0080704241 L7.02808726,0.0144289401 C5.92512469,0.0970896475 4.93025897,0.580581418 4.19614533,1.31841383 C4.1452331,1.36928196 4.09432087,1.4202316 4.0469114,1.47427899 L4.01489779,1.50916931 L4.0086254,1.51569086 L4.00544848,1.5187886 C3.32534254,2.30447292 2.92162891,3.31898229 2.88049183,4.36226802 L2.88049183,4.38444131 L2.87707053,4.44158643 L2.87707053,4.49897612 C2.87707053,5.14452852 3.01375968,5.75519061 3.25211038,6.30862606 C3.38879954,6.61717712 3.56059777,6.90975038 3.76066248,7.18006882 L3.77328871,7.19588359 L3.84334394,7.2881636 L3.85621455,7.30405989 L3.87193625,7.32313543 L3.88480686,7.34212946 L3.90052856,7.35794423 L3.91339917,7.37718282 L3.92912087,7.39299759 L3.93229779,7.39609533 L3.9451684,7.41199162 L4.05008833,7.52962416 L4.09757925,7.47875604 L4.14531456,7.42796943 L4.14531456,7.42796943 L4.19304987,7.3771013 L4.24078518,7.32615165 L4.2439621,7.32615165 L4.33918834,7.22759465 L4.33918834,7.22759465 L4.38692364,7.17664501 L4.43783588,7.12569536 L4.43783588,7.12569536 L4.53648341,7.02713836 L4.53648341,7.02713836 L4.58739564,6.97953101 L4.63488657,6.92858137 L4.6380635,6.92858137 L4.6857988,6.88081098 L4.73671103,6.83002437 L4.73671103,6.83002437 L4.78762327,6.78225398 L4.8385355,6.73448359 L4.8385355,6.73448359 L4.88944773,6.68687624 L4.94035996,6.63910585 L4.94035996,6.63592659 L4.99094635,6.58831924 L5.04185858,6.54364659 L5.04185858,6.54046733 L5.09277081,6.49595772 L5.14677851,6.44818733 L5.14677851,6.44818733 L5.19769074,6.40057998 L5.24860297,6.35280959 L5.30261066,6.30829998 L5.35352289,6.26061111 L5.35352289,6.26061111 L5.40753059,6.21284072 L5.45844282,6.16841263 L5.46161974,6.16841263 L5.51253197,6.12064224 L5.56653967,6.07605111 L5.56653967,6.07605111 L5.62062882,6.03162302 L5.67121521,5.98695037 L5.67463652,5.98385263 L5.72872567,5.93934302 L5.77931206,5.89801266 L5.78273336,5.89483341 L5.83674106,5.85024228 L5.88740891,5.8088304 L5.89083021,5.80565114 L5.94483791,5.76122305 L5.9954243,5.71981118 L5.9988456,5.7165504 L6.0528533,5.67522005 L6.10694245,5.63380817 L6.11011937,5.63071044 L6.16412707,5.58620082 L6.21813476,5.54487047 L6.22131169,5.54487047 L6.27540084,5.50036086 L6.32631307,5.45886747 L6.33258546,5.45886747 L6.38667461,5.41435786 L6.43758684,5.37612524 L6.49794838,5.33169715 L6.55195608,5.29028527 L6.555133,5.28710602 L6.61231762,5.24585718 L6.66322985,5.20762457 L6.66950224,5.20444531 L6.72668685,5.16311496 L6.77759908,5.12798008 L6.78419731,5.1217846 L6.84138193,5.08037273 L6.88887286,5.04531937 L6.89856654,5.03904237 L6.95575116,5.00080976 L7.00348647,4.9657564 L7.01293578,4.95947941 L7.12103263,4.88627495 L7.12730501,4.87999796 L7.18766656,4.8386676 L7.23540186,4.80671198 L7.24517701,4.80043499 L7.30236163,4.76220237 L7.35294802,4.73040979 L7.36272317,4.7207905 L7.41990779,4.6826394 L7.4676431,4.65084682 L7.48026933,4.64440679 L7.53745395,4.60633721 L7.58518925,4.57772389 L7.59805987,4.56818612 L7.65524448,4.53305124 L7.70273541,4.50125866 L7.7124291,4.49490014 L7.77270918,4.45683057 L7.82362141,4.42813573 L7.8298938,4.42177721 L7.89017388,4.3835446 L7.94108611,4.3516705 L7.9507798,4.34857276 L8.00796442,4.3135194 L8.06197211,4.28172682 L8.0682445,4.27528679 L8.12860604,4.24031495 L8.3035812,4.13857869 L8.30985358,4.13539943 L8.37013366,4.10034608 L8.42422282,4.06847198 L8.4304952,4.06537424 L8.49077529,4.03032088 L8.54486444,4.00170756 L8.55146266,3.9985283 L8.61182421,3.96347495 L8.66900882,3.93168237 L8.67218575,3.93168237 L8.73564275,3.89654749 L8.79307175,3.86483643 L8.79624867,3.86483643 L8.85652875,3.82978307 L8.91689029,3.79790897 L8.92006722,3.79790897 L8.98067314,3.76619791 L9.04103468,3.73424229 L9.04103468,3.73424229 L9.10449168,3.70244971 L9.16477176,3.67065713 L9.16794869,3.67065713 L9.2285546,3.63870151 L9.28891615,3.60699045 L9.29209307,3.60699045 L9.35237315,3.57511636 L9.41615599,3.54324226 L9.41615599,3.54324226 L9.479613,3.51454741 L9.54307,3.48283635 L9.54307,3.48283635 L9.67030985,3.42234893 L9.67030985,3.42234893 L9.73376685,3.39365409 L9.79437277,3.36504077 L9.92446371,3.30463487 L9.98824655,3.27602155 L10.0517036,3.24740823 L10.0517036,3.24740823 L10.1151606,3.21855035 L10.1789434,3.1931978 L10.1789434,3.1931978 L10.2455773,3.16450296 L10.3090343,3.13580812 L10.3090343,3.13580812 L10.3728172,3.11029254 L10.4394511,3.08167921 L10.4394511,3.08167921 L10.5032339,3.05616363 L10.5697864,3.02755031 L10.5697864,3.02755031 L10.6332434,3.00203473 L10.7001217,2.97668218 L10.7001217,2.97668218 L10.7635787,2.9511666 L10.830457,2.92565101 L10.830457,2.92565101 L10.893914,2.90013543 L10.9607923,2.87461985 L10.9607923,2.87461985 L11.0273448,2.84910426 L11.0939787,2.82358868 L11.0939787,2.82358868 L11.160857,2.80149691 L11.2243141,2.77598133 L11.227491,2.77598133 L11.2911924,2.75046575 L11.3578263,2.72821094 L11.4913385,2.68060359 L11.4756168,2.64555023 L11.4596507,2.61367614 L11.4564738,2.60731762 L11.4436032,2.57862278 L11.4278815,2.54373246 L11.4216091,2.53101543 L11.4119154,2.50876062 L11.3961937,2.47696804 L11.3865001,2.45781097 L11.3770507,2.44191469 L11.3610032,2.40702437 L11.3484584,2.38476956 L11.342186,2.37523179 L11.3230431,2.34025995 L11.3101724,2.31164663 L11.3069955,2.30830433 L11.2880969,2.27659327 L11.2689539,2.24145839 L11.2689539,2.24145839 L11.2498109,2.20966581 L11.2117693,2.14599913 L11.1926263,2.11428807 L11.183177,2.10157104 L11.1703064,2.08257701 L11.1514892,2.0506214 L11.141714,2.03480663 L11.1291693,2.01899185 L11.0465693,1.89500079 L11.0242494,1.86312669 L11.0020109,1.83443185 L11.0020109,1.83443185 L10.9319557,1.74223337 L10.9098801,1.71362005 C10.8492742,1.63405708 10.7826403,1.55767337 10.7160878,1.48455044 L10.6938493,1.45903485 L10.6906724,1.4558556 L10.6651756,1.42716075 L10.5633511,1.31898446 L10.5347588,1.29363192 L10.5284864,1.28401263 L10.5093434,1.26819786 L10.4807511,1.24276379 L10.4710574,1.23004676 L10.4553357,1.21732973 L10.4267434,1.19181414 L10.4106959,1.17591785 L10.4012466,1.16638008 L10.3726543,1.1408645 L10.3504158,1.12187047 L10.3440619,1.11543043 L10.3154696,1.09007789 L10.2899728,1.06782308 L10.2867959,1.06782308 L10.2582036,1.0423075 L10.2296113,1.01679192 L10.2296113,1.01679192 L10.2010189,0.99470015 L10.1721823,0.972445344 L10.1659099,0.965923789 L10.1149976,0.927854213 L10.1118207,0.924593435 L10.1023714,0.918316439 L10.1023714,0.915137181 L10.0514592,0.880083824 L10.0514592,0.880083824 L10.0388329,0.87054605 L10.0228669,0.857829018 L9.99109763,0.835737251 L9.97513156,0.823020219 L9.95598856,0.810303187 L9.92112386,0.788048381 L9.90857909,0.778510607 L9.88625917,0.762614317 L9.85139447,0.740441031 L9.84170078,0.734000996 L9.81620394,0.715006967 L9.78133924,0.692752161 L9.7749854,0.689654423 L9.74329762,0.670578875 L9.70810709,0.648324069 L9.70493017,0.648324069 L9.67006547,0.626069263 L9.63829624,0.606993715 L9.63511931,0.603895977 L9.59683332,0.58473891 L9.56824101,0.565826401 L9.5205057,0.543490075 L9.49500886,0.527675305 L9.42527946,0.492703467 L9.40931339,0.483165693 L9.37127177,0.464008626 L9.35212877,0.454633891 L9.21552107,0.390967212 L9.20916723,0.387787954 L9.05968892,0.324121275 L9.05651199,0.324121275 C8.98360568,0.292410214 8.90727806,0.266976151 8.83095045,0.238281309 L8.81180745,0.231922793 L8.75462283,0.212847246 L8.73238437,0.20648873 L8.67829521,0.19059244 L8.64652598,0.181217705 L8.52270744,0.146164348 L8.52270744,0.146164348 L8.36377982,0.107931732 L8.35090921,0.104752474 L8.30977212,0.0952147005 L8.28427528,0.0889377039 L8.26513228,0.0858399654 L8.2239952,0.0793184106 L8.20175673,0.0731229335 L8.13487843,0.0635036401 L8.12233365,0.0604059016 L8.09056442,0.0538843467 L8.0491015,0.0476888697 L8.03965219,0.0476888697 L7.97277388,0.0380695763 L7.96014765,0.0349718378 L7.95697073,0.0349718378 L7.91550781,0.0317925798 L7.87746619,0.0253525444 L7.8711938,0.0253525444 L7.82663542,0.0222548058 L7.79486619,0.0190755479 L7.78199557,0.0158147705 L7.73768157,0.0127170319 L7.70908926,0.00953777393 L7.69304172,0.00953777393 L7.64848334,0.00635851595 L7.62648926,0.00635851595 L7.60099241,0.00309773854 L7.55643403,0.00309773854 L7.54380779,0.00309773854 L7.46748018,0 L7.46088195,0 L7.37437189,0 L7.37437189,0.00171190814 Z" id="Shape"></path>
                </g>
            </g>
        </g>
    </g>
</svg>