<?xml version="1.0" encoding="UTF-8"?>
<svg width="24px" height="21px" viewBox="0 0 24 21" version="1.1" xmlns="http://www.w3.org/2000/svg" xmlns:xlink="http://www.w3.org/1999/xlink">
    <title>dob icon</title>
    <g id="Page-1" stroke="none" stroke-width="1" fill="none" fill-rule="evenodd">
        <g id="Android-Copy-2" transform="translate(-30.000000, -279.000000)" fill="#BDBDBD" fill-rule="nonzero">
            <g id="dob-icon" transform="translate(30.000000, 279.000000)">
                <g id="Group">
                    <g>
                        <circle id="Oval" transform="translate(15.379935, 11.033764) rotate(-45.000000) translate(-15.379935, -11.033764) " cx="15.3799346" cy="11.0337644" r="1.74835063"></circle>
                        <path d="M7.48637739,16.0673651 L8.58675785,15.0724032 L9.51596801,16.730673 C9.54042091,16.7748936 9.56487381,16.7970038 9.58932671,16.8412243 C9.8583086,17.150768 10.249555,17.3718707 10.6897072,17.393981 C11.1298593,17.4160912 11.5455586,17.2834296 11.8634463,16.9959962 L14.602171,14.5196466 C14.9445116,14.2101029 14.9445116,13.7457873 14.602171,13.4362436 L11.3988412,10.539799 C11.0565006,10.2302553 10.5429898,10.2302553 10.2006492,10.539799 C9.8583086,10.8493427 9.8583086,11.3136583 10.2006492,11.623202 L11.5700115,12.8613768 L10.0294789,14.2543234 L9.56487381,13.4362436 C9.44260931,13.215141 9.22253322,13.0603692 8.95355133,13.0161486 C8.68456945,12.9719281 8.41558756,13.0603692 8.21996436,13.2372513 L6.28818534,14.9839621 C5.94584476,15.2935058 5.94584476,15.7578214 6.28818534,16.0673651 C6.63052593,16.3769088 7.16848971,16.3769088 7.48637739,16.0673651 Z" id="Path"></path>
                        <path d="M20.7153958,2.4474423 L18.0500298,2.4474423 L18.0500298,0.966054591 C18.0500298,0.457518512 17.5854247,0.0374234905 17.023008,0.0374234905 L15.7759102,0.0374234905 C15.2134935,0.0374234905 14.7488884,0.457518512 14.7488884,0.966054591 L14.7488884,2.42533203 L8.53785205,2.42533203 L8.53785205,0.966054591 C8.53785205,0.457518512 8.07324697,0.0374234905 7.51083029,0.0374234905 L6.26373244,0.0374234905 C5.70131577,0.0374234905 5.23671069,0.457518512 5.23671069,0.966054591 L5.23671069,2.42533203 L2.5713447,2.42533203 C1.15307655,2.42533203 0.028243201,3.46451446 0.028243201,4.72479952 L0.028243201,18.654266 C0.028243201,19.9366613 1.17752945,20.9537335 2.5713447,20.9537335 L20.6909429,20.9537335 C22.109211,20.9537335 23.2340443,19.9145511 23.2340443,18.654266 L23.2340443,4.72479952 C23.2584972,3.48662472 22.109211,2.4474423 20.7153958,2.4474423 Z M21.0088305,17.9467376 C21.0088305,18.4994942 20.5197726,18.9416995 19.9084501,18.9416995 L3.37829036,18.9416995 C2.76696789,18.9416995 2.27790991,18.4994942 2.27790991,17.9467376 L2.27790991,7.82023652 L20.9843776,7.82023652 L20.9843776,17.9467376 L21.0088305,17.9467376 Z" id="Shape"></path>
                    </g>
                </g>
            </g>
        </g>
    </g>
</svg>