<?xml version="1.0" encoding="UTF-8"?>
<svg width="81px" height="29px" viewBox="0 0 81 29" version="1.1" xmlns="http://www.w3.org/2000/svg" xmlns:xlink="http://www.w3.org/1999/xlink">
    <title>female</title>
    <g id="Page-1" stroke="none" stroke-width="1" fill="none" fill-rule="evenodd">
        <g id="Android-Copy-2" transform="translate(-217.000000, -213.000000)" fill="#9BABFD">
            <g id="female" transform="translate(217.000000, 213.000000)">
                <g id="noun_Female_2794037" fill-rule="nonzero">
                    <g id="Group">
                        <path d="M8.4606,16.9245263 L8.3382,17.339 C8.3076,17.3887368 8.294,17.4484211 8.294,17.5081053 C8.294,17.5081053 8.294,17.5147368 8.294,17.5180526 C8.294,17.5545263 8.2974,17.5876842 8.3076,17.6241579 C8.4402,18.6421053 10.2422,19.1792632 12,19.1792632 C13.768,19.1792632 15.5768,18.6387895 15.6924,17.6075789 C15.6958,17.591 15.7026,17.5711053 15.7026,17.5545263 C15.7026,17.5379474 15.706,17.5246842 15.706,17.5081053 C15.706,17.4484211 15.6924,17.3986842 15.6686,17.3489474 L15.536,16.9245263 C20.3266,16.3741053 21.0746,13.9867368 21.1018,13.8839474 C21.1358,13.7811579 21.1154,13.6684211 21.0542,13.5788947 C19.8642,11.8381053 19.4732,7.73315789 19.4664,7.67678947 C18.6028,1.44310526 15.3082,0.133368421 12.7004,0.133368421 C12.4488,0.133368421 12.204,0.146631579 12.0374,0.166526316 C9.3412,-0.0788421053 5.4788,0.836315789 4.5302,7.69336842 C4.5268,7.73315789 4.1392,11.8347895 2.9458,13.5788947 C2.8846,13.6651053 2.8642,13.7778421 2.8982,13.8806316 C2.9254,13.9867368 3.6734,16.3741053 8.4606,16.9245263 Z M5.2782,7.77626316 C5.9038,3.26015789 7.9846,0.869473684 11.2996,0.869473684 C11.5274,0.869473684 11.7518,0.879421053 12.0374,0.899315789 C12.2516,0.879421053 12.4726,0.869473684 12.7004,0.869473684 C16.0154,0.869473684 18.0928,3.25684211 18.7184,7.75968421 C18.732,7.92878947 19.106,11.858 20.3164,13.8209474 C20.0818,14.3017368 19.0006,15.8933158 15.0124,16.2381579 C14.9002,16.2481053 14.7948,16.3044737 14.7302,16.4006316 C14.669,16.4901579 14.6486,16.6028947 14.6826,16.709 L14.9376,17.5445789 C14.8594,17.9225789 13.7204,18.4398421 12,18.4398421 C10.283,18.4398421 9.1406,17.9225789 9.0624,17.5445789 L9.3174,16.709 C9.3514,16.6028947 9.331,16.4901579 9.2664,16.3973158 C9.2052,16.3044737 9.0998,16.2481053 8.9876,16.2381579 C5.0402,15.8999474 3.9318,14.2951053 3.6802,13.8176316 C4.8906,11.8546842 5.268,7.93210526 5.2782,7.77626316 Z" id="Shape"></path>
                        <path d="M23.4444,22.5845789 C23.3662,22.5016842 21.4214,20.5785263 17.1884,19.1593684 C17.0456,18.9504737 16.7362,18.6023158 16.3214,18.6023158 C16.1684,18.6023158 15.9474,18.6520526 15.7434,18.8841579 C15.7264,18.9040526 15.706,18.9305789 15.6924,18.9604211 L12,26.4972105 L8.3076,18.9604211 C8.294,18.9305789 8.277,18.9040526 8.2532,18.8841579 C8.0492,18.6520526 7.8282,18.6023158 7.6752,18.6023158 C7.2638,18.6023158 6.951,18.9504737 6.8048,19.1593684 C2.5786,20.5752105 0.6338,22.4983684 0.5556,22.5845789 C0.4842,22.6508947 0.4502,22.7437368 0.4502,22.8365789 L0.4502,27.5018947 C0.4502,27.7074737 0.6168,27.8666316 0.8242,27.8666316 L23.1758,27.8666316 C23.3832,27.8666316 23.5498,27.7041579 23.5498,27.5018947 L23.5498,22.8365789 C23.5498,22.7437368 23.5192,22.6475789 23.4444,22.5845789 Z" id="Path"></path>
                    </g>
                </g>
                <text id="Female" font-family="Helvetica" font-size="14" font-weight="normal">
                    <tspan x="32" y="28">Female </tspan>
                </text>
            </g>
        </g>
    </g>
</svg>