<?xml version="1.0" encoding="UTF-8"?>
<svg width="94px" height="26px" viewBox="0 0 94 26" version="1.1" xmlns="http://www.w3.org/2000/svg" xmlns:xlink="http://www.w3.org/1999/xlink">
    <title>govt job</title>
    <g id="Page-1" stroke="none" stroke-width="1" fill="none" fill-rule="evenodd">
        <g id="HAMBURGER-EXTENSION" transform="translate(-19.000000, -236.000000)">
            <g id="govt-job" transform="translate(20.000000, 237.000000)">
                <rect id="Rectangle" stroke="#96A8F9" fill="#FFFFFF" x="0" y="0" width="92" height="24" rx="8"></rect>
                <text id="Govt.-Job" font-family="Helvetica-Light, Helvetica" font-size="12" font-weight="300" fill="#AEAEAE">
                    <tspan x="31" y="17">Govt. Job </tspan>
                </text>
                <g id="government-job" transform="translate(3.000000, 0.000000)">
                    <rect id="Rectangle" stroke="#979797" fill="#D8D8D8" opacity="0" x="0" y="0" width="24" height="24"></rect>
                    <g id="noun_Government_79176" transform="translate(3.818182, 2.000000)" fill-rule="nonzero">
                        <g id="Group" transform="translate(0.181818, 0.000000)">
                            <rect id="Rectangle" fill="#99AAF9" x="1.80821622" y="13.1817778" width="1.7692973" height="4.54555556"></rect>
                            <rect id="Rectangle" fill="#99AAF9" x="5.34659459" y="13.1817778" width="1.76908108" height="4.54555556"></rect>
                            <rect id="Rectangle" fill="#99AAF9" x="8.88454054" y="13.1817778" width="1.76908108" height="4.54555556"></rect>
                            <rect id="Rectangle" fill="#99AAF9" x="12.4224865" y="13.1817778" width="1.7692973" height="4.54555556"></rect>
                            <rect id="Rectangle" fill="#CAE7FF" x="0.0393513514" y="10.9091111" width="15.9215135" height="1.81822222"></rect>
                            <rect id="Rectangle" fill="#CAE7FF" x="0.0393513514" y="18.1817778" width="15.9215135" height="1.81822222"></rect>
                            <path d="M14.1695135,10.4544444 C14.1794595,10.3035556 14.1917838,10.1535556 14.1917838,10 C14.1917838,6.79511111 11.8836757,4.15133333 8.88454054,3.70866667 L8.88454054,0.909111111 C8.88454054,0.407333333 8.488,0 8,0 C7.51113514,0 7.11545946,0.407333333 7.11545946,0.909111111 L7.11545946,3.70888889 C4.11632432,4.15133333 1.80821622,6.79511111 1.80821622,10 C1.80821622,10.1535556 1.82010811,10.3035556 1.8307027,10.4544444 L14.1695135,10.4544444 Z" id="Path" fill="#99AAF9"></path>
                        </g>
                    </g>
                </g>
            </g>
        </g>
    </g>
</svg>