<?xml version="1.0" encoding="UTF-8"?>
<svg width="70px" height="26px" viewBox="0 0 70 26" version="1.1" xmlns="http://www.w3.org/2000/svg" xmlns:xlink="http://www.w3.org/1999/xlink">
    <title>health</title>
    <g id="Page-1" stroke="none" stroke-width="1" fill="none" fill-rule="evenodd">
        <g id="HAMBURGER-EXTENSION" transform="translate(-19.000000, -300.000000)">
            <g id="health" transform="translate(20.000000, 301.000000)">
                <rect id="Rectangle" stroke="#99AAF9" fill="#FFFFFF" x="0" y="0" width="67" height="24" rx="8"></rect>
                <text id="Health" font-family="Helvetica-Light, Helvetica" font-size="12" font-weight="300" fill="#AEAEAE">
                    <tspan x="29" y="16">Health</tspan>
                </text>
                <g transform="translate(3.000000, 0.000000)">
                    <rect id="Rectangle" stroke="#979797" fill="#D8D8D8" opacity="0" x="0" y="0" width="24" height="24"></rect>
                    <g id="noun_Health_3063925" transform="translate(4.681818, 2.000000)" fill-rule="nonzero">
                        <g id="Group" transform="translate(0.318182, 0.000000)">
                            <path d="M9.34716364,14.5218182 C9.34716364,14.7145455 9.19392727,14.8711688 9.00454545,14.8711688 L7.67021818,14.8711688 L7.67021818,16.2332468 C7.67021818,16.4262338 7.51647273,16.5825974 7.3276,16.5825974 L6.67138182,16.5825974 C6.48301818,16.5825974 6.32927273,16.4262338 6.32927273,16.2332468 L6.32927273,14.8711688 L4.99494545,14.8711688 C4.80607273,14.8711688 4.65283636,14.7145455 4.65283636,14.5218182 L4.65283636,13.8524675 C4.65283636,13.6594805 4.80607273,13.5033766 4.99494545,13.5033766 L6.32927273,13.5033766 L6.32927273,12.1412987 C6.32927273,11.9485714 6.48301818,11.7924675 6.67138182,11.7924675 L7.3276,11.7924675 C7.51647273,11.7924675 7.67021818,11.9485714 7.67021818,12.1412987 L7.67021818,13.5033766 L9.00454545,13.5033766 C9.19392727,13.5033766 9.34716364,13.6594805 9.34716364,13.8524675 L9.34716364,14.5218182 L9.34716364,14.5218182 Z" id="Path" fill="#99AAF9"></path>
                            <g>
                                <path d="M11.9521818,3.28701299 C11.9521818,4.07688312 11.3247273,4.71714286 10.5506545,4.71714286 L3.44883636,4.71714286 C2.67527273,4.71714286 2.04781818,4.07688312 2.04781818,3.28701299 L2.04781818,1.50701299 C2.04781818,0.716623377 2.67527273,0.0766233766 3.44883636,0.0766233766 L10.5506545,0.0766233766 C11.3247273,0.0766233766 11.9521818,0.716623377 11.9521818,1.50701299 L11.9521818,3.28701299 Z" id="Path" fill="#CAE7FF"></path>
                                <path d="M12.1634545,7.92285714 L10.5366545,6.31220779 L10.5366545,5.20753247 L3.46283636,5.20753247 L3.46283636,6.31220779 L1.83654545,7.92285714 C0.9436,8.80805195 0.213818182,10.6335065 0.213818182,11.9812987 L0.213818182,18.4922078 C0.213818182,19.2825974 0.841272727,19.9231169 1.61534545,19.9231169 L12.3844,19.9231169 C13.1589818,19.9231169 13.7864364,19.2825974 13.7864364,18.4922078 L13.7864364,11.9812987 C13.7861818,10.6332468 13.0558909,8.80805195 12.1634545,7.92285714 Z M11.9521818,16.7955844 C11.9521818,17.5384416 11.3616364,18.1412987 10.6331273,18.1412987 L3.36636364,18.1412987 C2.63810909,18.1412987 2.04781818,17.5387013 2.04781818,16.7955844 L2.04781818,11.5480519 C2.04781818,10.8054545 2.63785455,10.2023377 3.36636364,10.2023377 L10.6333818,10.2023377 C11.3616364,10.2023377 11.9524364,10.8051948 11.9524364,11.5480519 L11.9524364,16.7955844 L11.9521818,16.7955844 Z" id="Shape" fill="#99AAF9"></path>
                            </g>
                        </g>
                    </g>
                </g>
            </g>
        </g>
    </g>
</svg>