<?xml version="1.0" encoding="UTF-8"?>
<svg width="67px" height="29px" viewBox="0 0 67 29" version="1.1" xmlns="http://www.w3.org/2000/svg" xmlns:xlink="http://www.w3.org/1999/xlink">
    <title>male</title>
    <g id="Page-1" stroke="none" stroke-width="1" fill="none" fill-rule="evenodd">
        <g id="Android-Copy-2" transform="translate(-88.000000, -213.000000)">
            <g id="male" transform="translate(88.000000, 213.000000)">
                <g id="noun_Male_2794035" fill-rule="nonzero">
                    <g id="Group">
                        <path d="M23.22,22.1235 C23.14,22.0395 21.2333333,20.006 17.0866667,18.508 C16.9433333,18.291 16.64,17.92 16.2366667,17.92 C16.0866667,17.92 15.8666667,17.9725 15.67,18.2175 C15.6466667,18.2455 15.63,18.2735 15.6166667,18.3015 L11.9966667,26.2535 L8.38,18.3015 C8.36333333,18.2735 8.34666667,18.2455 8.32666667,18.2175 C8.12666667,17.9725 7.91,17.92 7.76,17.92 C7.35666667,17.92 7.05333333,18.2875 6.91,18.508 C2.76,20.006 0.853333333,22.0395 0.776666667,22.1235 C0.706666667,22.2005 0.673333333,22.295 0.673333333,22.3965 L0.673333333,27.3175 C0.673333333,27.531 0.836666667,27.706 1.04333333,27.706 L22.9566667,27.706 C23.16,27.706 23.3266667,27.5275 23.3266667,27.3175 L23.3266667,22.3965 C23.3233333,22.295 23.2866667,22.2005 23.22,22.1235 Z" id="Path" fill="#BDBDBD"></path>
                        <path d="M6,6.496 C5.99333333,6.888 5.99333333,7.21 6.00333333,7.4585 C5.73333333,7.637 5.32666667,7.994 5.18,8.6065 C4.98666667,9.4185 5.33,10.3705 6.19,11.4415 L7.74,15.3265 C7.75666667,15.358 8.09333333,15.946 8.51666667,16.3695 L8.39,16.8105 C8.36333333,16.863 8.35,16.9225 8.35,16.9855 L8.35,16.9925 C8.35,17.0345 8.35333333,17.073 8.36333333,17.108 C8.49333333,18.186 10.2633333,18.7495 11.98,18.7495 C13.71,18.7495 15.4866667,18.1825 15.6,17.0905 C15.6066667,17.073 15.6066667,17.052 15.6066667,17.038 C15.61,17.017 15.6133333,16.996 15.6133333,16.982 C15.6133333,16.919 15.5966667,16.8665 15.5733333,16.8105 L15.5,16.548 C16,16.142 16.4233333,15.4105 16.4966667,15.2775 L18.02,11.438 C18.88,10.367 19.2233333,9.415 19.0333333,8.603 C18.8833333,7.994 18.4733333,7.637 18.2066667,7.4585 C18.2133333,7.21 18.2133333,6.888 18.21,6.496 C18.2066667,6.468 18.2066667,6.44 18.2,6.4155 C18.1766667,5.3165 18.11,3.99 18.1033333,3.9865 C18.11,3.955 18.13,3.752 18.1033333,3.4615 C18.07,3.129 17.9366667,2.492 17.4233333,1.8515 C17.41,1.8165 17.3933333,1.7885 17.37,1.764 C17.34,1.729 17.31,1.701 17.27,1.666 C16.5266667,0.8715 15.4766667,0.8925 15.0566667,0.945 C14.2033333,0.35 12.58,0.308 12.22,0.3045 C10.4666667,0.21 8.37,0.5565 6.88333333,1.155 C6.87666667,1.1585 6.05,1.456 5.26333333,1.456 C5.15,1.456 5.03666667,1.449 4.85333333,1.428 C4.64,1.428 4.40666667,1.5785 4.36666667,1.9145 C4.28333333,2.5935 5.24,4.746 6.03666667,5.3725 C6.02666667,5.628 6.01,6.055 6,6.496 Z M5.12,2.2295 C6.06333333,2.268 7.08333333,1.9075 7.13666667,1.89 C8.55,1.316 10.5366667,0.9905 12.2,1.085 C12.2133333,1.085 12.2233333,1.085 12.2366667,1.085 C12.8833333,1.0885 14.2266667,1.211 14.7266667,1.652 C14.81,1.729 14.9333333,1.7605 15.04,1.736 C15.0466667,1.736 16.1066667,1.533 16.7466667,2.2085 C16.7533333,2.2155 16.76,2.2225 16.7666667,2.2295 C16.7733333,2.2435 16.7866667,2.2575 16.8,2.275 C17.23,2.7825 17.3433333,3.283 17.3666667,3.5385 C17.3866667,3.7485 17.37,3.885 17.3666667,3.9585 C17.3666667,3.9585 17.4366667,5.383 17.46,6.51 C17.46,6.538 17.4633333,6.5625 17.47,6.5905 C17.4766667,7.063 17.47,7.42 17.4533333,7.651 C17.44,7.8225 17.5366667,7.9835 17.6866667,8.0465 C17.6933333,8.05 18.1866667,8.267 18.3133333,8.7955 C18.4433333,9.352 18.1366667,10.108 17.42,10.983 C17.3933333,11.011 17.3733333,11.046 17.36,11.0845 L15.8333333,14.9275 C15.7066667,15.155 15.2966667,15.792 14.9466667,16.0055 C14.9266667,16.0195 14.8566667,16.079 14.8433333,16.0965 C14.7233333,16.191 14.6733333,16.3555 14.7166667,16.5095 L14.8633333,17.024 C14.7866667,17.423 13.6666667,17.969 11.9833333,17.969 C10.3,17.969 9.18,17.423 9.1,17.024 L9.29333333,16.352 C9.34,16.198 9.29,16.03 9.16666667,15.932 C8.78,15.6205 8.40333333,14.9765 8.4,14.9765 L6.85,11.0845 C6.83666667,11.046 6.81333333,11.011 6.79,10.983 C6.08,10.1115 5.77,9.359 5.89333333,8.8025 C6.01666667,8.274 6.50333333,8.057 6.52,8.0465 C6.67,7.9835 6.76666667,7.826 6.75333333,7.6545 C6.73333333,7.4095 6.72666667,7.0245 6.73666667,6.5135 C6.75,5.8345 6.78666667,5.18 6.78666667,5.18 C6.79666667,5.005 6.66666667,4.8405 6.51333333,4.781 C6.13333333,4.6375 5.27333333,2.933 5.12,2.2295 Z" id="Shape" fill="#9A9898"></path>
                    </g>
                </g>
                <text id="Male" font-family="Helvetica" font-size="14" font-weight="normal" fill="#9A9898">
                    <tspan x="32" y="28">Male </tspan>
                </text>
            </g>
        </g>
    </g>
</svg>