<?xml version="1.0" encoding="UTF-8"?>
<svg width="26px" height="18px" viewBox="0 0 26 18" version="1.1" xmlns="http://www.w3.org/2000/svg" xmlns:xlink="http://www.w3.org/1999/xlink">
    <title>Group</title>
    <g id="Page-1" stroke="none" stroke-width="1" fill="none" fill-rule="evenodd">
        <g id="Android-Copy-2" transform="translate(-28.000000, -171.000000)" fill="#BDBDBD" fill-rule="nonzero">
            <g id="Group" transform="translate(29.000000, 172.000000)">
                <path d="M20.95,0.175 L3.05,0.175 C1.45,0.175 0.125,1.475 0.125,3.1 L0.125,12.95 C0.125,14.55 1.425,15.875 3.05,15.875 L20.975,15.875 C22.575,15.875 23.9,14.575 23.9,12.95 L23.9,3.075 C23.875,1.475 22.575,0.175 20.95,0.175 Z M22.95,12.925 C22.95,14.025 22.05,14.9 20.975,14.9 L3.05,14.9 C1.95,14.9 1.075,14 1.075,12.925 L1.075,3.075 C1.075,1.975 1.975,1.1 3.05,1.1 L20.975,1.1 C22.075,1.1 22.95,2 22.95,3.075 L22.95,12.925 Z" id="Shape" stroke="#BDBDBD"></path>
                <path d="M19.975,3.85 L13.375,3.85 C13.125,3.85 12.9,4.05 12.9,4.325 C12.9,4.6 13.1,4.8 13.375,4.8 L19.975,4.8 C20.225,4.8 20.45,4.6 20.45,4.325 C20.45,4.05 20.25,3.85 19.975,3.85 Z" id="Path"></path>
                <path d="M19.975,7.525 L13.375,7.525 C13.125,7.525 12.9,7.725 12.9,8 C12.9,8.275 13.1,8.475 13.375,8.475 L19.975,8.475 C20.225,8.475 20.45,8.275 20.45,8 C20.45,7.725 20.25,7.525 19.975,7.525 Z" id="Path"></path>
                <path d="M19.975,11.225 L13.375,11.225 C13.125,11.225 12.9,11.425 12.9,11.7 C12.9,11.95 13.1,12.175 13.375,12.175 L19.975,12.175 C20.225,12.175 20.45,11.975 20.45,11.7 C20.45,11.425 20.25,11.225 19.975,11.225 Z" id="Path"></path>
                <path d="M8.475,7.5 C8.975,7.075 9.3,6.425 9.3,5.725 C9.3,4.425 8.25,3.375 6.95,3.375 C5.65,3.375 4.6,4.425 4.6,5.725 C4.6,6.45 4.925,7.075 5.425,7.5 C4.225,8.125 3.4,9.45 3.4,11 C3.4,11.375 3.575,12.05 4.65,12.5 C5.275,12.75 6.075,12.9 6.95,12.9 C8.725,12.9 10.5,12.325 10.5,11.025 C10.5,9.475 9.675,8.125 8.475,7.5 Z M5.55,5.725 C5.55,4.95 6.175,4.325 6.95,4.325 C7.725,4.325 8.35,4.95 8.35,5.725 C8.35,6.5 7.725,7.125 6.95,7.125 C6.175,7.125 5.55,6.5 5.55,5.725 Z M6.95,11.95 C5.525,11.95 4.35,11.525 4.35,11 C4.35,9.375 5.525,8.05 6.95,8.05 C8.375,8.05 9.55,9.375 9.55,11 C9.575,11.525 8.375,11.95 6.95,11.95 Z" id="Shape"></path>
            </g>
        </g>
    </g>
</svg>