<?xml version="1.0" encoding="UTF-8"?>
<svg width="103px" height="26px" viewBox="0 0 103 26" version="1.1" xmlns="http://www.w3.org/2000/svg" xmlns:xlink="http://www.w3.org/1999/xlink">
    <title>relationship</title>
    <g id="Page-1" stroke="none" stroke-width="1" fill="none" fill-rule="evenodd">
        <g id="HAMBURGER-EXTENSION" transform="translate(-18.000000, -171.000000)">
            <g id="relationship" transform="translate(19.000000, 172.000000)">
                <rect id="Rectangle" stroke="#98AAFA" fill="#FFFFFF" x="0" y="0" width="101" height="24" rx="8"></rect>
                <text id="Relationship" font-family="Helvetica-Light, Helvetica" font-size="12" font-weight="300" fill="#AEAEAE">
                    <tspan x="29" y="16">Relationship</tspan>
                </text>
                <g transform="translate(3.000000, 0.000000)">
                    <rect id="Rectangle" fill="#FFFFFF" opacity="0" x="0" y="0" width="24" height="24"></rect>
                    <g id="noun_relationship_692755" transform="translate(2.000000, 4.000000)" fill="#98AAFA" fill-rule="nonzero">
                        <g id="Group">
                            <path d="M14.2602217,16.9059719 C14.0912766,16.6979917 13.963006,16.5611192 13.5442739,16.142042 C12.9468458,15.5441089 12.5035867,15.1352618 11.4248875,14.1872142 C10.6378024,13.4954644 9.48569539,12.3389005 8.99101976,11.7439271 C8.77877223,11.4886485 8.5205022,11.0781823 8.37616465,10.7667114 C8.22983315,10.4509759 8.15036279,10.2040414 8.06534852,9.80094609 C8.01122338,9.54433508 7.99099561,9.31414745 7.98784907,9.22310789 C7.98542865,9.15310048 7.9781213,8.96275133 8.00443469,8.75396336 C8.02536553,8.58781869 8.07507629,8.41149483 8.11165917,8.26405133 C8.21786937,7.83603732 8.53745664,7.15065765 9.06428924,6.62341727 C9.39120692,6.29624296 9.61030077,6.16619816 10.0133002,5.96484466 C10.1543644,5.89435996 10.3089484,5.82398389 10.4779512,5.77299545 C10.7695077,5.6850346 11.075483,5.63764609 11.2237623,5.62347865 C11.2925483,5.61690632 11.3919583,5.60666818 11.5050148,5.60344269 C11.6952481,5.59801564 11.9162091,5.60450591 12.0371954,5.62382536 C12.4837969,5.69514446 12.9651833,5.83749375 13.3395412,6.05002957 C13.6163677,6.20719232 13.8965598,6.41930401 14.27018,6.78412332 L14.517028,7.0251535 L14.721438,6.82306499 C15.0007426,6.54692651 15.1009594,6.45689007 15.2627239,6.33677716 C15.4793052,6.17595092 15.6962322,6.05266567 16.0010203,5.9171811 C16.3432673,5.7650467 16.4335488,5.73367009 16.6953919,5.6758724 C16.8255757,5.64713651 17.0299857,5.6148261 17.2190895,5.60765629 C17.3849111,5.60136941 17.5247305,5.60616084 17.5900357,5.60786431 C17.6585796,5.60964867 17.7462563,5.61498212 17.8300719,5.62581196 C17.8651449,5.63034337 17.9328359,5.64114317 18.0047453,5.65363834 C18.0922146,5.66884011 18.1852393,5.69377267 18.2245653,5.70575241 C18.3014885,5.72918375 18.504135,5.78626608 18.774657,5.90442706 C19.2437799,6.10933195 19.5086658,6.30977825 19.9014995,6.69485425 C20.1506295,6.93906717 20.2534857,7.06066166 20.3965554,7.28012576 C20.6439105,7.6595586 20.8491389,8.17551842 20.9414374,8.65004956 C21.0023397,8.96310727 21.0057398,9.66882223 20.9482607,10.0609721 C20.8979737,10.4039711 20.8558584,10.5742138 20.7731493,10.7688239 C20.6874665,10.9704282 20.521933,11.2983109 20.4556482,11.3977014 C20.4332881,11.431223 20.4024912,11.4789582 20.387208,11.5037787 C20.3285187,11.5990757 20.1793864,11.8009793 20.0549193,11.953665 C19.9835516,12.0412133 19.8965203,12.1504732 19.861528,12.1964657 C19.7548683,12.3366666 19.1241537,12.9856135 18.6989786,13.3926289 C17.9272344,14.1314112 17.4944523,14.5107227 16.813197,15.045408 C16.7022613,15.1324755 16.4558743,15.330481 16.2656641,15.485419 C15.559006,16.0610545 14.632747,16.7906642 14.6210137,16.8000114 C14.6081855,16.8102356 14.4652311,16.9073436 14.4617503,16.9102317 C14.4617503,16.9102317 14.3543875,16.9831583 14.3185768,16.9920062 C14.3068205,16.9748097 14.2954561,16.9493467 14.2602217,16.9059707 L14.2602217,16.9059719 Z M12.4653198,16.0334965 C12.478775,15.998734 12.5060904,15.9863953 12.526024,16.0060726 C12.5800318,16.0593829 12.5699404,16.0967027 12.5015742,16.0967027 C12.4681853,16.0967027 12.4518646,16.0682638 12.4653198,16.0334965 L12.4653198,16.0334965 Z M6.31190615,11.3719437 C6.21521625,11.2727312 5.80297311,10.7749363 5.29702525,10.2886727 C4.85415807,9.86303249 4.55657355,9.58992998 3.86827607,8.97743766 C3.0000494,8.20482522 2.82421186,8.03964786 2.14635675,7.35990326 C1.26420692,6.47529653 1.03439407,6.21821285 0.778025796,5.82921564 C0.486734358,5.38722257 0.293492865,5.06843039 0.149017014,4.51228192 L0.0562689352,4.06301156 L0.0238353458,3.75938185 L0.00561306257,3.43643732 L0.0275697036,3.12446363 L0.0831586169,2.88129776 C0.098787596,2.81293719 0.179272228,2.57118702 0.195281559,2.52802366 C0.279938529,2.29973943 0.409811196,2.0509327 0.608389133,1.74732495 C0.888200878,1.31951666 1.31546213,0.886431543 1.72279528,0.617715976 C2.05387377,0.39931278 2.28352525,0.265893406 2.81290505,0.125756084 L2.96423875,0.0858806254 L3.1460236,0.0530617267 L3.28209715,0.0328339225 L3.38813447,0.0191888511 L3.45299012,0.0135560843 L3.52963666,0.0100081577 L3.65106092,0.00919918423 L3.77533205,0.0150734874 L3.87641328,0.0219116247 L4.11302634,0.0513698165 L4.45380955,0.135817403 C4.58787761,0.1690431 4.72578375,0.210824269 4.76144457,0.224005914 C4.79710538,0.237187559 4.84572119,0.253205235 4.8694989,0.259601903 C4.96617728,0.285612712 5.35203787,0.466153637 5.49247969,0.55109123 C5.79685291,0.735163902 6.15422173,1.02994344 6.374618,1.27873977 C6.45512569,1.36961061 6.5270236,1.44395989 6.53441164,1.44395989 C6.54178814,1.44395989 6.67266356,1.3231397 6.82523052,1.17547084 C7.13004171,0.880438205 7.33311471,0.718002107 7.58526454,0.567519171 C7.77695005,0.453117607 7.77503677,0.45410571 7.97426015,0.36660136 C8.31339517,0.217636982 8.35066959,0.184994901 8.66856257,0.114707818 C8.76605928,0.0931521414 8.83245939,0.0765462271 8.95903568,0.0652205982 C9.0513112,0.0569621346 9.1755708,0.051510809 9.36716411,0.0489949014 C9.81902141,0.0430593474 9.98450878,0.0831936778 9.98450878,0.0831936778 C9.98450878,0.0831936778 10.0888864,0.104588715 10.122,0.110948402 C10.1960763,0.125171312 10.2552958,0.136754657 10.313478,0.150956764 C10.5192366,0.201177838 10.632927,0.240220054 10.7404512,0.283348742 C10.8813771,0.339877498 10.9222821,0.370359619 11.0170703,0.422875867 C11.2950263,0.576868593 11.3935488,0.648959687 11.6120895,0.82391985 C11.7580752,0.94079225 12.1470939,1.32926132 12.2663052,1.47719137 C12.4983771,1.76520557 12.7503079,2.22735248 12.8661537,2.57759755 C13.0299698,3.07288117 13.1117684,4.10327186 13.0250252,4.57873331 C12.995185,4.74225112 12.9370604,4.99431917 12.9223419,5.00984453 C12.9223419,5.00984453 12.5483414,4.92147573 12.5087042,4.91250999 C12.3360132,4.87345275 12.1947415,4.83851666 11.8959122,4.80681183 C11.7544446,4.7918019 11.5793101,4.78323603 11.3775165,4.78576812 C11.1433238,4.78870816 10.9139374,4.79981536 10.7698535,4.8231138 C10.4534819,4.87427328 10.1784303,4.92911128 9.92920801,5.02404432 C9.59909769,5.14979232 9.246927,5.32914983 9.05978266,5.44496363 C8.85923381,5.56906941 8.66005653,5.68149939 8.37077058,5.97234616 C8.12733425,6.21709184 7.99748463,6.37622271 7.89363721,6.55273032 C7.82172777,6.67495697 7.69071405,6.87957988 7.60908836,7.05106145 C7.53134687,7.21435738 7.38885346,7.58761543 7.38139627,7.60328178 C7.37650933,7.6135569 7.29997805,7.88822651 7.26324533,8.03081502 C7.23934083,8.12359041 7.16239462,8.3503896 7.14439133,8.85184684 C7.13615038,9.08139769 7.14059934,9.29793215 7.16272887,9.503193 C7.1910708,9.76591754 7.26572338,9.9849968 7.32139297,10.2038831 C7.36424588,10.3299223 7.37383535,10.3629388 7.44846487,10.5471398 C7.44846487,10.5471398 7.34876674,10.6769049 6.94274753,11.0021481 C6.57902799,11.2935103 6.35198134,11.4167262 6.35198134,11.4167262 L6.31181394,11.3719437 L6.31190615,11.3719437 Z" id="Shape"></path>
                        </g>
                    </g>
                </g>
            </g>
        </g>
    </g>
</svg>