<?xml version="1.0" encoding="UTF-8"?>
<svg width="76px" height="26px" viewBox="0 0 76 26" version="1.1" xmlns="http://www.w3.org/2000/svg" xmlns:xlink="http://www.w3.org/1999/xlink">
    <title>wealth</title>
    <g id="Page-1" stroke="none" stroke-width="1" fill="none" fill-rule="evenodd">
        <g id="HAMBURGER-EXTENSION" transform="translate(-19.000000, -332.000000)">
            <g id="wealth" transform="translate(20.000000, 333.000000)">
                <rect id="Rectangle" stroke="#99AAF9" fill="#FFFFFF" x="0" y="0" width="74" height="24" rx="8"></rect>
                <text id="Wealth" font-family="Helvetica-Light, Helvetica" font-size="12" font-weight="300" fill="#AEAEAE">
                    <tspan x="31" y="16">Wealth</tspan>
                </text>
                <g transform="translate(3.000000, 0.000000)">
                    <rect id="Rectangle" stroke="#979797" fill="#D8D8D8" opacity="0" x="0" y="0" width="24" height="24"></rect>
                    <g id="noun_cash_1889422" transform="translate(1.000000, 5.000000)" fill-rule="nonzero">
                        <g id="Group">
                            <path d="M3.76861472,1.96137026 L2.02121212,3.75808228 L2.02121212,8.54285714 L3.76861472,10.3395692 L17.2450216,10.3395692 L18.9924242,8.54285714 L18.9924242,3.75323939 L17.2699134,1.95652737 L3.76861472,1.96137026 L3.76861472,1.96137026 Z M11.7937229,4.36828636 L12.4757576,4.36828636 C12.7495671,4.36828636 12.9735931,4.58621639 12.9735931,4.85257532 C12.9735931,5.11893424 12.7495671,5.33686427 12.4757576,5.33686427 L11.7937229,5.33686427 C11.5746753,6.24248461 10.7632035,6.92533204 9.78246753,6.97860382 L11.6941558,8.73657272 C11.89329,8.92060253 11.9032468,9.22570457 11.7140693,9.41942015 C11.6145022,9.52112083 11.4850649,9.56954972 11.3506494,9.56954972 C11.2261905,9.56954972 11.10671,9.52596372 11.0071429,9.43879171 L8.18939394,6.8478458 C8.04004329,6.7122449 7.9952381,6.49915776 8.06991342,6.31512796 C8.14458874,6.13109815 8.32878788,6.01002592 8.53290043,6.01002592 L9.66298701,6.01002592 C10.1458874,6.01002592 10.5590909,5.73398121 10.7482684,5.33202138 L8.53787879,5.33202138 C8.26406926,5.33202138 8.04004329,5.11409135 8.04004329,4.84773243 C8.04004329,4.5813735 8.26406926,4.36344347 8.53787879,4.36344347 L10.7482684,4.36344347 C10.5590909,3.96632653 10.1458874,3.68543894 9.66298701,3.68543894 L8.53290043,3.68543894 C8.25909091,3.68543894 8.03506494,3.46750891 8.03506494,3.20114998 C8.03506494,2.93479106 8.25909091,2.71686103 8.53290043,2.71686103 L9.66298701,2.71686103 L12.4757576,2.71686103 C12.7495671,2.71686103 12.9735931,2.93479106 12.9735931,3.20114998 C12.9735931,3.46750891 12.7495671,3.68543894 12.4757576,3.68543894 L11.4950216,3.68543894 C11.6344156,3.89852608 11.7339827,4.12614189 11.7937229,4.36828636 Z" id="Shape" fill="#99AAF9"></path>
                            <path d="M21.9645022,2.03401361 L21.9645022,10.8335439 C21.9645022,12.1701814 20.8493506,13.2549887 19.4753247,13.2549887 L2.12077922,13.2549887 C2.32489177,13.8167638 2.87748918,14.2235666 3.52965368,14.2235666 L21.4666667,14.2235666 C22.2880952,14.2235666 22.9601732,13.5697765 22.9601732,12.7706997 L22.9601732,3.40455134 C22.9601732,2.7749757 22.5419913,2.23257208 21.9645022,2.03401361 Z" id="Path" fill="#CAE7FF"></path>
                            <path d="M20.9688312,10.8335439 L20.9688312,1.46739553 C20.9688312,0.668318756 20.2967532,0.0145286686 19.4753247,0.0145286686 L1.53333333,0.0145286686 C0.711904762,0.0145286686 0.0398268398,0.668318756 0.0398268398,1.46739553 L0.0398268398,10.8335439 C0.0398268398,11.6326207 0.711904762,12.2864108 1.53333333,12.2864108 L19.4703463,12.2864108 C20.2967532,12.2864108 20.9688312,11.6326207 20.9688312,10.8335439 Z M17.4541126,11.3081471 L3.55454545,11.3081471 C3.42012987,11.3081471 3.28571429,11.2548753 3.19112554,11.1580175 L1.15995671,9.0707321 C1.07034632,8.9787172 1.02554113,8.86248785 1.02554113,8.73657272 L1.02554113,3.5643667 C1.02554113,3.43845157 1.07532468,3.32222222 1.15995671,3.23020732 L3.19112554,1.14292193 C3.28571429,1.04606414 3.41515152,0.992792355 3.55454545,0.992792355 L17.4839827,0.992792355 C17.6233766,0.992792355 17.7528139,1.04606414 17.8474026,1.14776482 L19.8536797,3.23505021 C19.9383117,3.32706511 19.9880952,3.44329446 19.9880952,3.5643667 L19.9880952,8.73657272 C19.9880952,8.86248785 19.9383117,8.9787172 19.8536797,9.0707321 L17.8225108,11.1580175 C17.7229437,11.2548753 17.5935065,11.3081471 17.4541126,11.3081471 Z" id="Shape" fill="#99AAF9"></path>
                        </g>
                    </g>
                </g>
            </g>
        </g>
    </g>
</svg>