<?xml version="1.0" encoding="UTF-8"?>
<svg width="61px" height="26px" viewBox="0 0 61 26" version="1.1" xmlns="http://www.w3.org/2000/svg" xmlns:xlink="http://www.w3.org/1999/xlink">
    <title>work</title>
    <g id="Page-1" stroke="none" stroke-width="1" fill="none" fill-rule="evenodd">
        <g id="HAMBURGER-EXTENSION" transform="translate(-19.000000, -365.000000)">
            <g id="work" transform="translate(20.000000, 365.000000)">
                <rect id="Rectangle" stroke="#99AAF9" fill="#FFFFFF" x="0" y="1" width="59" height="24" rx="8"></rect>
                <text id="Work" font-family="Helvetica-Light, Helvetica" font-size="12" font-weight="300" fill="#AEAEAE">
                    <tspan x="28" y="17">Work</tspan>
                </text>
                <g transform="translate(3.000000, 0.000000)">
                    <g>
                        <rect id="Rectangle" stroke="#979797" fill="#D8D8D8" opacity="0" x="0" y="0" width="24" height="24"></rect>
                        <path d="M20.4375,8.6665529 L14.8125,8.6665529 L14.8125,6.53331058 C14.8125,6.23877128 14.5606602,6 14.25,6 L9.75,6 C9.43933983,6 9.1875,6.23877128 9.1875,6.53331058 L9.1875,8.6665529 L3.5625,8.6665529 C3.25183983,8.6665529 3,8.90532418 3,9.19986348 L3,11.5997611 C3.02770686,12.9486289 4.20129244,14.021959 5.6240625,13.9996587 L10.3125,13.9996587 L10.3125,13.1996928 C10.3125,12.6106142 10.8161797,12.1330717 11.4375,12.1330717 L12.5625,12.1330717 C13.1838203,12.1330717 13.6875,12.6106142 13.6875,13.1996928 L13.6875,13.9996587 L18.3759375,13.9996587 C19.7987076,14.021959 20.9722931,12.9486289 21,11.5997611 L21,9.19986348 C21,8.90532418 20.7481602,8.6665529 20.4375,8.6665529 Z M21,13 L21,19.4348002 C21,19.7469514 20.7481602,20 20.4375,20 L3.5625,20 C3.25183983,20 3,19.7469514 3,19.4348002 L3,13 C3.60579765,13.8498315 4.58372427,14.3522001 5.6240625,14.3480016 L10.3125,14.3480016 L10.3125,15.1958014 C10.3125,15.8201039 10.8161797,16.326201 11.4375,16.326201 L12.5625,16.326201 C13.1838203,16.326201 13.6875,15.8201039 13.6875,15.1958014 L13.6875,14.3480016 L18.3759375,14.3480016 C19.4162757,14.3522001 20.3942023,13.8498315 21,13 Z M13,7 L13,9 L10,9 L10,7 L13,7 Z M11.5,16 C11.2238576,16 11,15.7761424 11,15.5 L11,13.5 C11,13.2238576 11.2238576,13 11.5,13 L12.5,13 C12.7761424,13 13,13.2238576 13,13.5 L13,15.5 C13,15.7761424 12.7761424,16 12.5,16 L11.5,16 Z" id="Shape" fill="#99AAF9" fill-rule="nonzero"></path>
                    </g>
                </g>
            </g>
        </g>
    </g>
</svg>