<?xml version="1.0" encoding="UTF-8"?>
<svg width="22px" height="22px" viewBox="0 0 22 22" version="1.1" xmlns="http://www.w3.org/2000/svg" xmlns:xlink="http://www.w3.org/1999/xlink">
    <title>noun_world_3455770</title>
    <g id="Page-1" stroke="none" stroke-width="1" fill="none" fill-rule="evenodd">
        <g id="Android-Copy-2" transform="translate(-29.000000, -325.000000)" fill="#BDBDBD" fill-rule="nonzero">
            <g id="noun_world_3455770" transform="translate(29.000000, 325.000000)">
                <path d="M11.0025385,0.270769231 L10.9246923,0.271615385 C8.05792308,0.291076923 5.37138462,1.42661538 3.36007692,3.46669231 C1.34792308,5.50761538 0.250461538,8.20938462 0.271615385,11.0753077 C0.313923077,16.9493077 5.126,21.7292308 11,21.7292308 L11.0778462,21.7292308 C13.9437692,21.7097692 16.6294615,20.5742308 18.6407692,18.5333077 C20.6520769,16.4923846 21.7503846,13.7906154 21.7283846,10.9238462 C21.6869231,5.04984615 16.8765385,0.270769231 11.0025385,0.270769231 Z M11.0685385,20.4845385 L11,20.4845385 C5.80715385,20.4845385 1.55269231,16.2605385 1.5154152,11.0668462 C1.51461538,10.978 1.52561538,10.8908462 1.52730769,10.802 C1.85646154,11.4078462 2.30830769,11.7200769 2.88538462,11.9722308 C3.828,12.3834615 4.33061538,12.078 4.46007692,15.0446154 C4.59546154,18.1652308 7.93184615,18.2092308 7.56969231,17.0753846 C7.27607692,16.1547692 7.24053846,14.8821538 8.17553846,14.0410769 C9.10969231,13.1983077 8.734,11.7209231 7.05353846,10.5845385 C5.37476923,9.44730769 5.64638462,6.81576923 6.35292308,6.61946154 C6.95115385,6.45276923 9.15538462,7.66869231 8.55546154,5.51184615 C8.11123077,3.91346154 6.02461538,3.85084615 5.07692308,3.59953846 C6.303,2.61376923 7.73892308,1.95969231 9.27807692,1.67792308 C9.42784615,1.86153846 9.68507692,2.03753846 10.1293077,2.12553846 C11.2800769,2.354 11.8673077,2.926 12.287,3.39561538 C12.6787692,3.83223077 15.6826154,6.47984615 17.2530769,3.88130769 C18.4647692,4.94661538 19.4031538,6.31484615 19.9506154,7.865 C19.2703077,7.73469231 18.2718462,7.64330769 17.6930769,8.06130769 C16.7589231,8.73823077 16.6607692,9.78323077 15.3052308,10.1073077 C13.9496923,10.4296923 10.7698462,11.2885385 11.0135385,12.6440769 C11.2589231,14.0013077 10.9500769,14.6308462 12.518,14.8271538 C14.0867692,15.0251538 15.2324615,14.5986923 15.345,15.6436923 C15.4575385,16.6886923 13.5316923,16.8054615 13.772,17.8479231 C13.9640769,18.689 15.3060769,18.8413077 17.0406923,18.3141538 C15.3610769,19.7043846 13.2753077,20.4693077 11.0685385,20.4845385 Z" id="Shape"></path>
            </g>
        </g>
    </g>
</svg>